<svg id="Layer_group" data-name="Layer group" xmlns="http://www.w3.org/2000/svg" viewBox="0 0 2048 1536"><defs><style>.cls-1{opacity:0.86;}.cls-2,.cls-48{fill:none;}.cls-3{fill:#603d20;}.cls-4{fill:#c38553;}.cls-5{fill:#c48654;}.cls-6{fill:#502117;}.cls-7{fill:#a55747;}.cls-8{fill:#382c26;}.cls-9{fill:#252525;}.cls-10{fill:#6e6c6c;}.cls-11{fill:#fffdfc;}.cls-12{fill:#ccc;}.cls-13{fill:#a59d46;}.cls-14{fill:#8e883c;}.cls-15{fill:#3e3d32;}.cls-16{fill:#415d70;}.cls-17{fill:#88877a;}.cls-18{fill:#3f3e33;}.cls-19{fill:#efe253;}.cls-20{fill:#c9be42;}.cls-21{fill:#f0e353;}.cls-22{fill:#312f2e;}.cls-23{fill:#010101;}.cls-24{fill:#616161;}.cls-25{fill:#0d0d0d;}.cls-26{fill:#b2b1b1;}.cls-27{fill:#494848;}.cls-28{fill:#212121;}.cls-29{fill:#717070;}.cls-30{fill:#c4c4c4;}.cls-31{fill:#9e9086;}.cls-32{fill:#685d55;}.cls-33{fill:#bbb9b7;}.cls-34{fill:#d5c153;}.cls-35{fill:#d553c6;}.cls-36{fill:#53bbd5;}.cls-37{fill:#572451;}.cls-38{fill:#635a27;}.cls-39{fill:#275965;}.cls-40{fill:#ce61c3;}.cls-41{fill:#46464c;}.cls-42{fill:#52444f;}.cls-43{fill:#435553;}.cls-44{fill:#7a7a7a;}.cls-45{fill:#4b2a12;}.cls-46{fill:#29190e;}.cls-47{fill:#b37343;}.cls-48{stroke:#b37343;stroke-linecap:round;stroke-linejoin:round;stroke-width:0;}</style></defs><g id="Layer_group-2" data-name="Layer group"><g id="Vector_layer-16" data-name="Vector layer"><path class="cls-2" d="M876.34,784.68a155.67,155.67,0,0,0-14.15-16c-2.84,51,11.09,152.24-26.6,180a147.84,147.84,0,0,0,12.32,20.41c.76,1,1.47,1.83,2.12,2.57l-.24-.31c4.06,4.93,8.47,10.22,13.16,15.56,14.43-56.68,24.64-126.69,31.3-188C888.11,794.23,882.11,789.52,876.34,784.68Z"/><path class="cls-2" d="M854,760.1a25.29,25.29,0,0,1,2.3,5.73c.05-1.05.11-2.08.16-3.1C855.65,761.86,854.82,761,854,760.1Z"/><path class="cls-2" d="M801.56,757.24c-4.49,15.83-2.59,67.39-8.51,100.41,8.29,2.18,15.41,10.81,14.35,24.08-.11,1.13-.18,2.14-.23,3a26.68,26.68,0,0,1,2.62-1.14c.29-3.19.66-6.32,1.12-9.27a6.89,6.89,0,0,0-1.54-2.6c-3.44-4-2.79-18.67,0-26.49-.31-4.81-.35-9.74-.22-14.76-5.32-7.09-4.5-20.59,1.58-25.81.35-4.49.69-9,1-13.5-1.34-12.69-1.81-24.38-.16-32.93-.31-3-.72-6-1.27-8.9a51.26,51.26,0,0,1-1.51-6.92c-3.55,3.7-5.75,8.63-7.27,14.09Z"/><path class="cls-2" d="M845.33,749.7c-1.33,4.84-2.64,9.44-3.7,13.43-4,17.81-6.83,36.52,4.61,51.2-7.63,11.8-2.87,36.92-5.19,52.4,1.42,2.22,2,5.21,1.08,10-2.22,7.62-1.21,20.52-.94,33.09,10.08-46.76,11.11-102.33,11.66-151A112,112,0,0,1,845.33,749.7Z"/><path class="cls-2" d="M1264.78,863.42c.14.61,0,1.41.83,1.27l-.83-1.27C1265.32,864.28,1265,863.86,1264.78,863.42Z"/><path class="cls-2" d="M855.61,872.51c-3,21.89-7.3,42-12.76,55.13C849.43,913.15,854.29,893.12,855.61,872.51Z"/><path class="cls-2" d="M1010.92,589.7c-.74.18-1.47.33-2.21.47,0,1.73-.08,3.46-.13,5.19A22.86,22.86,0,0,1,1010.92,589.7Z"/><path class="cls-2" d="M907,728.37c.07,4.94.07,10.24,0,15.84,7,7.27,14.37,14.36,21.88,21.31,2.22,1.65,4.39,3.47,6.53,5.38,9.55-.19,19.76,17.3,29.27,20.37,5.88,2.89,20.37,13.47,21.53,19.72.42-32.78,2.76-65.53,5.34-98.19-7.67-.3-3.91-1.73-6.93,1.49-17.53,7.59-39.18,3.76-57.81,9.89C931,723.33,916.3,726.41,907,728.37Z"/><path class="cls-2" d="M986.18,813.28c0-.24,0-.49,0-.73a2.47,2.47,0,0,1-.18.52Z"/><path class="cls-2" d="M1214.58,871.08c.44.09.92.09,1.42.16C1215.87,869.4,1215.49,869.79,1214.58,871.08Z"/><path class="cls-2" d="M896.93,730.5l-2.26.47c.6.68,1.23,1.36,1.84,2,.06-.68.11-1.35.18-2C896.77,730.81,896.85,730.66,896.93,730.5Z"/><path class="cls-2" d="M897.34,801.16a1.09,1.09,0,0,0,0,.17v-.13Z"/><path class="cls-2" d="M864.12,988.22l3.48,3.89c1.57-5.47,3.11-11.27,4.59-17.27C869.2,983.61,866.41,988.69,864.12,988.22Z"/><path class="cls-2" d="M1230.73,821.67c.38.35.74.71,1.09,1.07a163.42,163.42,0,0,0,17.72.52l.21-.52Q1240.24,822.27,1230.73,821.67Z"/><path class="cls-2" d="M928.72,1031.15c5.8,1.42,11.17.27,16.37-1.75a26.41,26.41,0,0,1,1.8-2.47l.23-.34a3.43,3.43,0,0,1-.34.06,13.94,13.94,0,0,1,2.86-4.29,4.09,4.09,0,0,1,3-3.43,2.1,2.1,0,0,1,1.92-1.13l.49-.45c-.43-1.21.43-2.67,3.59-4.43h0l.24-.14-.11.06c2.51-2.41,7.56-4.19,12.46-4.69q.62-.18,1.26-.33c21.14-25.25,31.5-57.41,39.54-90-23.09-13.51-40-27.13-25.45-33.22-5.89-1.55-5.94-7.69-4.57-19.15,0-.3,0-.58,0-.85-23.17-21.07-51.34-39.26-77.79-58.45-4.77,65.78-15.51,143.57-32,190.91A223.26,223.26,0,0,0,893,1016.75C900.35,1016.87,921.66,1033.62,928.72,1031.15Z"/><path class="cls-2" d="M903.89,1056.58c10.05-2.43,24.5,1.32,35.56.73a6.24,6.24,0,0,1,1-2.64,31.35,31.35,0,0,1-.48-6.43c-.66-2.32-.37-5.32.47-8.43a102.64,102.64,0,0,1-10.37,4,154.17,154.17,0,0,1-43.46-24.62,38.26,38.26,0,0,1,3.94,11.27,25.75,25.75,0,0,1-5.55,18.86c1,.28,2.12.61,3.24,1C893.62,1049.73,899.5,1052.73,903.89,1056.58Z"/><path class="cls-2" d="M1054.82,1053.54l-.41-.42a13.48,13.48,0,0,1-1.94,4.2c.41.2.82.42,1.22.64A14.06,14.06,0,0,1,1054.82,1053.54Z"/><path class="cls-2" d="M1149.56,1036l.13-.06a15.46,15.46,0,0,0-4.47,2.35,6,6,0,0,1-.84.83c2.17.27,4.37.56,6.62.88,0-1.61.17-3.24.34-4.89Z"/><path class="cls-2" d="M1027.63,1063l.38-.14c.83-.84,1.65-1.66,2.47-2.44a4.59,4.59,0,0,1-1.16-3.91h0c.08-2.51,0-5,.2-7.53h-2.27a37.39,37.39,0,0,1-1.5,6.66A16.44,16.44,0,0,1,1027.63,1063Z"/><path class="cls-2" d="M1029.33,1056.57l.19-.8A3.72,3.72,0,0,0,1029.33,1056.57Z"/><path class="cls-2" d="M1141.9,492.76l-4-1.26q4.76,1.2,9.89,2.47c17.42,3.61,42,8.81,67.52,15.18,0-.16-.09-.31-.13-.48-29.14-7.88-59.44-14.9-87.12-19.95,1.62.7,3.21,1.42,4.74,2.16Z"/><path class="cls-2" d="M1029.55,1055.63c-.07.23-.07.23,0,.12Z"/><path class="cls-2" d="M1155.26,1012.1c.32-1.84.62-3.67.87-5.5a27.8,27.8,0,0,0-5.41,10.95C1152.31,1015.77,1153.85,1014,1155.26,1012.1Z"/><path class="cls-2" d="M1064.25,1015.91l.62-.28C1065.06,1015.71,1064.87,1015.06,1064.25,1015.91Z"/><path class="cls-2" d="M1163,1023.7l.51-.27c2.88-2.55,5.38-5.63,5.06-9.86-3.3,4.15-6.23,7.53-8.76,10.23,0,.2,0,.4-.07.59A11.55,11.55,0,0,1,1163,1023.7Z"/><path class="cls-2" d="M1570.91,1157.71l.32,0-.13-.1Z"/><path class="cls-2" d="M752.18,1086.16l-.07-.12a13.52,13.52,0,0,1-1.11-1.85c.25.86.48,1.74.69,2.63l.22-.07A6.28,6.28,0,0,1,752.18,1086.16Z"/><path d="M751.91,1086.75l-.22.07.06.25,0,0Z"/><path d="M1739.07,1064.48l.56.23C1739.61,1064.23,1739.43,1064.15,1739.07,1064.48Z"/><path d="M1001,1371.23c.11-1.42.23-2.84.34-4.26l0-.34C1001.22,1368.16,1001.11,1369.7,1001,1371.23Z"/><path d="M1579.33,1156.61c4-7.1,4.59-13.34,2.91-19,1.67-4.21-.73-7.48-5.72-10-13-15.29-42.08-26.28-58.16-40.2-10.52-6.69-34.77-41.67-42-18.92a13.06,13.06,0,0,1,1.32.62c8.2,5.57,16.06,11.73,23.92,17.79,9,10.27,54,28,43.27,40.95a11.47,11.47,0,0,1,.52,2.26c-6.15,11.31-23.48,11.72-42,10.28a42.5,42.5,0,0,1-14.23-1.08q-21.3.36-42.56.34c-35.69,2.69-71.49,6.47-107.27,5.28a49.7,49.7,0,0,1-12.49-.59c-34.34,1.8-70.64.94-106.76,1.15q-9.35.18-18.69.43c-14.93.49-29.82,1.33-44.61,2.79-.19-.3-.38-.59-.58-.87-2,.12-4,.23-6,.37-3.77-.35-7-.75-9.82-1.19-3.92,1.24-11,1-22.23-1.12a71.16,71.16,0,0,1-6.76-3.11c-22.23-.34-42.34-.26-49.6,2.11-36.46-.28-72.87-2.19-109.33-2.35h0c-53.29-1.24-106.28-.62-159.34-.38-8.47.47-16.64,1-24.37,1.69-6.81-2.11-18.54,1.5-24.94-1.64q-26.16-.09-52.4-.63c-5.33.35-11.68.79-17.91,1-9.84.83-18.36,1.39-25.64,1.7-1.1.62-2.19,1.26-3.22,1.94h0c-4.84-.08-13.86.24-21.18-.46-9.37.77-17.86-.92-24.59-7.09,9-9.91,68.58-23.5,105.36-28.64,5.45-1.36,10.66-2.59,15.38-3.64,1-3.49,2.33-7.05,3.53-10.56-8.66,2.72-17.37,5.3-26.19,7.34-31.19,15.61-110.87,8.23-113.5,48.68.41,3.07,1.81,4.92,3.94,5.87-3,3.58-3.41,7.88-.53,13a14.18,14.18,0,0,1-2.45-3.82q.5,7.68,1,15.35c-.31,2.78,1.13,4.76,3.9,6.11a20.61,20.61,0,0,1-3.45.81c7.31,3,14.7,3.17,22,1.67a306.84,306.84,0,0,0,31.17-2.56c1.6,1.12,3.92,1.51,6.93.62.49-.59.92-1.14,1.32-1.66,6.19-.8,12.29-1.62,18-2.35,33.66,2,68.25,0,102.7-.48,19.86,1,39.65,1.76,59.18,1.8,3.43.32,6.85.67,10.26,1.09,59.53-1.45,119-.9,178.54-1.63,0,.52-.07,1-.11,1.55-3.63,60-9.75,119.81-14.51,179.72,4.25,49.83-42.11,258,22.42,255.58.26,3.17.44,6.36.64,9.44,0,.66.09,1.33.13,2v.06h0v-.12c1.27,23.12,7.86,51.3,33.61,57.62,67.86,11.38,53.4-72.24,48-114.37-2.6-101.71,4.94-203.4,7.25-305.07-2.45-25.56,5.63-62.35-2.49-89.15,2.8-.14,5.6-.26,8.4-.42l-8.7-.51c-.12-.38-.25-.76-.38-1.14l34.18-.36c-3.67,5.93,8,6.46,18.3,4.79a29.38,29.38,0,0,0-2.9,20.41c-1.61,64.27-.76,128.5-1.84,192.75-.07,2.15-.11,4.38-.12,6.65q-.15,8.33-.36,16.67v-.12l.66,1.8c.27,9.5.55,17.54,0,20.57,6.34,16-25,211.23,10.87,163.32-.12,14.26,7.26,25.12,23.51,23.32,33.72,24.63,43.53-21.69,37.38-47.13-.07-45,1.71-90.07-.19-135.1A39.15,39.15,0,0,0,1228,1430c-.07-10.87.29-20.18,1.72-26.73-.93-72.76,6.44-146.42,1.37-218.84a31.52,31.52,0,0,0-2.63-4.84q67.46-.84,134.91-2.33a226.81,226.81,0,0,0,22.73-.57c47.9-1.27,95.8-3,143.67-5.41,18,2.12,29.78.94,36.31-1.85,7.9.12,14.53-.58,13.28-5a7.42,7.42,0,0,0-2.24-4.27c.62-.9,1.18-1.78,1.69-2.65A1.79,1.79,0,0,0,1579.33,1156.61ZM1057.15,1615a1.42,1.42,0,0,1,1.1-.52ZM849.54,1152.31c3,3-1.68,1.39-3.85,1.9C847,1153.58,848.27,1153,849.54,1152.31Zm721.37,5.4.19-.07.13.1Z"/><path class="cls-3" d="M1489.77,1107.11c-2.1-1.56-4.22-3.08-6.39-4.54C1481.17,1108.12,1485.51,1106.41,1489.77,1107.11Z"/><path class="cls-3" d="M854.37,1119.41l-.41.1c.52,0,1.61-.16,2.12-.19A6.53,6.53,0,0,0,854.37,1119.41Z"/><path class="cls-3" d="M1471.58,1090.6l-.31.09.42,0Z"/><path class="cls-3" d="M1230.43,1073.35q-12.57.11-25.14.16a184.59,184.59,0,0,1,22.39,5.33A29.54,29.54,0,0,1,1230.43,1073.35Z"/><path class="cls-3" d="M897.22,1128.94c-.06-1.62-2.9-.78-3.86-.86l-13.48.74C885.7,1129.32,891.37,1128.55,897.22,1128.94Z"/><path class="cls-3" d="M1434.05,1071.24c-16.66-.58-33.32-.41-50.08,0q-28.23.49-56.64,1C1362.9,1072.68,1398.51,1072.83,1434.05,1071.24Z"/><path class="cls-3" d="M1456.92,1138.85l1.32-.13-1.34.13h0l-1.73.17h0l-8.61.63q21.26,0,42.56-.34a42.5,42.5,0,0,0,14.23,1.08C1486.27,1139.07,1468.17,1136.17,1456.92,1138.85Z"/><path class="cls-3" d="M1019.05,1127.57c1.35-.47,2.73-.88,4.12-1.24,1.8-3.55,7.05-7.55,14.23-11.73q-4.25-1.45-8.39-2.94c-7.63,6.34-23,6.94-33.11,12.66-7.87,3.68-17.28,6-23.56,11.85-3,.1-1.89-4.12-4.81-2.32-1.19,2.8-4.11.55-6,2-3.28.89-8.51,7.77-10,1.47.37-1.82.59-1.75-1.41-1.57-17.5,1.25-35-.41-52.53-.65h.12c-4.61-.12-9.3-.3-14-.52l.18,0c-26.26.16-54.67-4.37-80.11.31a35.47,35.47,0,0,1-26.75,6.93c-10.48-.74-19.14-1.7-26.27-2.87-3.28.63-8.24-.61-13-2.8-9.75-2.78-14.73-6.29-16.92-10.49l-1.67-1.55.22.18a14.43,14.43,0,0,1-1.13-3.08,155.58,155.58,0,0,1-17.85,6.06c-15.91,6.24-33.4,11.74-44.31,13.07a79.41,79.41,0,0,0-8.28,4c7.28-.31,15.8-.87,25.64-1.7,6.23-.19,12.58-.63,17.91-1q26.25.57,52.4.63c6.4,3.14,18.13-.47,24.94,1.64,7.73-.67,15.9-1.22,24.37-1.69,53.06-.24,106-.86,159.34.38h0c36.46.16,72.87,2.07,109.33,2.35,7.26-2.37,27.37-2.45,49.6-2.11l-1.19-.62C1073,1141.43,1009.55,1143.81,1019.05,1127.57Z"/><path class="cls-3" d="M952.34,1128.79c0-.09-.23.09-.32.09C952.13,1128.84,952.32,1129,952.34,1128.79Z"/><path class="cls-4" d="M1100.48,1085l1.4.17c1.54-.69,3-1.35,4.38-2-5.73.41-11.24.52-15.81-.35a7.75,7.75,0,0,1-1.53,3.4c1.43.31,2.8.64,4.13,1A9.42,9.42,0,0,1,1100.48,1085Z"/><path class="cls-4" d="M1015.92,1072.68c-.5.57-1,1.14-1.54,1.7a13,13,0,0,1,1.46.34,16.32,16.32,0,0,1,1.38-1.91A6.59,6.59,0,0,1,1015.92,1072.68Z"/><path class="cls-4" d="M656.14,1140.26c10.91-1.33,28.4-6.83,44.31-13.07a155.58,155.58,0,0,0,17.85-6.06c-1.1-4.46-.22-9.51,1.3-14.74-4.72,1-9.93,2.28-15.38,3.64-36.78,5.14-96.4,18.73-105.36,28.64,6.73,6.17,15.22,7.86,24.59,7.09,7.32.7,16.34.38,21.18.46h0c1-.68,2.12-1.32,3.22-1.94A79.41,79.41,0,0,1,656.14,1140.26Z"/><path class="cls-5" d="M1173.16,1075a5.94,5.94,0,0,1-1.39,2.73,60.28,60.28,0,0,1,13.39,5c14.44-1.19,25.76,2.18,22.16,9.72-1.54,3.9-12.89,14.76-36.49,31.07l0,0c-2.8,1.28-5.54,3.72-8.29,6.24-2.4,2.29-4.75,4.62-7,7a2.54,2.54,0,0,1-1.76,1.66c0,.19,0,.4,0,.61-1.23,7.1-13.63,8.11-19.29,5.53l-.45-.41-.18.08c-3.7-1.38-12.5-1.89-23.68-2.11l1.19.62a71.16,71.16,0,0,0,6.76,3.11c11.23,2.17,18.31,2.36,22.23,1.12,2.79.44,6.05.84,9.82,1.19,2-.14,4-.25,6-.37.2.28.39.57.58.87,14.79-1.46,29.68-2.3,44.61-2.79q9.33-.26,18.69-.43c36.12-.21,72.42.65,106.76-1.15a49.7,49.7,0,0,0,12.49.59c35.78,1.19,71.58-2.59,107.27-5.28l8.61-.63,1.73-.17c11.25-2.68,29.35.22,46.45,1.54,18.51,1.44,35.84,1,42-10.28a11.47,11.47,0,0,0-.52-2.26c10.71-12.91-34.26-30.68-43.27-40.95-7.86-6.06-15.72-12.22-23.92-17.79a13.06,13.06,0,0,0-1.32-.62,9.31,9.31,0,0,0-8.57.69q-16.85,1.33-33.71,2.06c-35.54,1.59-71.15,1.44-106.72.93-31.82-.45-63.61-1.19-95.3-1.23-.59.84-1.11,1.63-1.6,2.41a29.54,29.54,0,0,0-2.75,5.49,184.59,184.59,0,0,0-22.39-5.33,128,128,0,0,0-32-1.48C1173.25,1073.12,1173.19,1074.13,1173.16,1075Zm310.22,27.54c2.17,1.46,4.29,3,6.39,4.54C1485.51,1106.41,1481.17,1108.12,1483.38,1102.57Zm-11.8-12,.11.07-.42,0Z"/><path class="cls-5" d="M1113.13,1116.68l-.81.34h1.07Z"/><path class="cls-5" d="M849.54,1152.31c-1.27.64-2.56,1.27-3.85,1.9C847.86,1153.7,852.54,1155.31,849.54,1152.31Z"/><path class="cls-5" d="M1458.24,1138.72l-1.32.13h0Z"/><path class="cls-5" d="M1455.2,1139h0Z"/><path class="cls-5" d="M1068.39,1096.86c-10.07,2-20.67-.56-30.31,3.1a36.29,36.29,0,0,1-4.64-1c.78,6-1.06,9.91-4.43,12.71q4.14,1.48,8.39,2.94c17.38-10.1,46.06-21.22,64.48-29.45l-1.4-.17a9.42,9.42,0,0,0-7.43,2.19c-1.33-.33-2.7-.66-4.13-1-2.54,3.21-7.91,4.67-16.12,3.66a7,7,0,0,1-1,.08A19.59,19.59,0,0,1,1068.39,1096.86Z"/><path class="cls-5" d="M1008.64,1101.4l-.21,0C1007.47,1101.49,1008.07,1101.78,1008.64,1101.4Z"/><path class="cls-5" d="M1016.19,1092.69q2.89.33,5.76.74a26.62,26.62,0,0,1-3.18-2.73A10.21,10.21,0,0,1,1016.19,1092.69Z"/><path class="cls-6" d="M1163.8,1052.53a17.69,17.69,0,0,1-2.18-.22l.37.06a57.21,57.21,0,0,1-8-1c-34.71-1.73-54.9-4.53-64-7.22,2.39,7.78-3.79,16.4-3.47,25.2,3.34,5.29,4.66,9.93,4,13.48,4.57.87,10.08.76,15.81.35,6.1-2.84,10.56-5.25,12.32-7,6.8-9.41,39-8.19,41.22-.5a81.15,81.15,0,0,1,12,2.14,5.94,5.94,0,0,0,1.39-2.73c0-.9.09-1.91.15-3,.4-7.27.9-18.1-4.08-22.53A4.82,4.82,0,0,1,1163.8,1052.53Z"/><path class="cls-7" d="M1089.69,1043.34q.15.39.27.78c9.09,2.69,29.28,5.49,64,7.22a57.21,57.21,0,0,0,8,1l-.37-.06a17.69,17.69,0,0,0,2.18.22,4.82,4.82,0,0,0,5.43-3c1.16-3-.39-7.28-4.5-7.53-3.91,3-7.1,4.55-8.61,3.65a4.5,4.5,0,0,1,1-4.67l-1.14-.18c-1.27,2.93-2.84,5-4.85,5.51a49.88,49.88,0,0,1-.16-6.25c-2.25-.32-4.45-.61-6.62-.88a10.39,10.39,0,0,1-3,1.65l-.49.33.29-.2-.71.48.07-.05a20.23,20.23,0,0,0-2.85,2.09,4,4,0,0,1,.07,1.74c-.66,3.21-5.93,3.61-6.48.14a4.17,4.17,0,0,1,0-1.47c-1.21-1.57-.7-3.76.56-6l-2-.17c-1.92,4.93-4.59,7.66-7,3.23a9.93,9.93,0,0,1,.92-3.66l-2.3-.13c-.83,3.74-2.19,7-4.45,9.32a27.46,27.46,0,0,1-1.78-9.58c-4-.13-7.65-.14-11-.07-1.32,6.93-3.09,10.71-5.11,6.84,0-2,0-4.26-.07-6.64-3.08.18-5.73.45-7.92.79C1093.3,1041,1093.35,1043.3,1089.69,1043.34Z"/><path class="cls-8" d="M1099.25,1043.62c2,3.87,3.79.09,5.11-6.84a180.68,180.68,0,0,0,2.44-28.4c2.44-7,2.48-22.43,0-23.5-3.63,0-8.7.7-7.27,5.76a.88.88,0,0,0,0-.15c-.8,6.12-4.15,14.34.52,18.83-1.06,9-1,19.24-.89,27.66C1099.21,1039.36,1099.24,1041.6,1099.25,1043.62Z"/><path class="cls-8" d="M1117.11,1046.43c2.26-2.35,3.62-5.58,4.45-9.32,1.39-6.28,1.28-14,1.35-21.35a2.51,2.51,0,0,1-2.57-2.27,61.32,61.32,0,0,1-1.53-10.4c-.14,10.8-3.78,23.19-3.48,33.76A27.46,27.46,0,0,0,1117.11,1046.43Z"/><path class="cls-8" d="M1119.13,997.67c.86-3.84,3.09-3.4,4.74,1.48a6.25,6.25,0,0,1,.38.61,3.35,3.35,0,0,0,0-1,2.67,2.67,0,0,0,1.56-3.65c0,.12,0,.23.07.35,0-.18-.07-.37-.11-.55,0,0,0,.07,0,.11a3.81,3.81,0,0,0-1-3.13,11.68,11.68,0,0,1,1.68-3.87c-.41-4.19-2.16-4.34-4-2.69-.12-3.48-5.58-3.37-5.49.16a1.36,1.36,0,0,0,0,.2c-2.74,2.24-4.94,12.23-1,15a9.32,9.32,0,0,0,2.38.42A3.11,3.11,0,0,1,1119.13,997.67Z"/><path class="cls-8" d="M1131.37,1043.86a4.17,4.17,0,0,0,0,1.47c.55,3.47,5.82,3.07,6.48-.14a4,4,0,0,0-.07-1.74,20.23,20.23,0,0,1,2.85-2.09l-.07.05.71-.48-.29.2.49-.33a10.39,10.39,0,0,0,3-1.65,6,6,0,0,0,.84-.83,15.46,15.46,0,0,1,4.47-2.35l-.13.06,1.78-.89c-.17,1.65-.29,3.28-.34,4.89a49.88,49.88,0,0,0,.16,6.25c2-.56,3.58-2.58,4.85-5.51a40.55,40.55,0,0,0,2.13-6.94c4.58.63,8.95-3.87,11.94-9.41,1.16-1.35,1.8-2.55,1.59-3.33,3.9-9.37,3.58-19.36-5.93-12.65-1.8,1.7-3.45,3.35-5,4.92a2.45,2.45,0,0,1,0-.27c6.3-9.9,9.15-17.47,1.88-14.32-.26-.29-.52-.57-.79-.82,0-.53.1-1,.16-1.5l0,.34-.09-1c2.24-7-2.63-16.56-5.32-4.73a47.85,47.85,0,0,1,.26,5.1c-10,.85-20.9,25.33-16.94,32.63l-.33,0c-1.84,1.7-5.73,5.45-7.73,9C1130.67,1040.1,1130.16,1042.29,1131.37,1043.86Zm37.17-30.29c.32,4.23-2.18,7.31-5.06,9.86l-.51.27a11.55,11.55,0,0,0-3.26.69c0-.19,0-.39.07-.59C1162.31,1021.1,1165.24,1017.72,1168.54,1013.57Zm-13.28-1.47c-1.41,1.85-3,3.67-4.54,5.45a27.8,27.8,0,0,1,5.41-10.95C1155.88,1008.43,1155.58,1010.26,1155.26,1012.1Z"/><path class="cls-8" d="M1156.12,1045.62c1.51.9,4.7-.67,8.61-3.65a113.52,113.52,0,0,0,14.83-14.29,4.25,4.25,0,0,1-3.37-.46c-1.73-3.1,14.2-27.34,13.81-14.12-1.34,1.4-2.59,4-4,6.65,5.57-7.45,8.9-14,6.28-15.64-9.41,5.3-14.9,19.21-24,26.64-1.92,3.87-8.38,6.74-11.17,10.2A4.5,4.5,0,0,0,1156.12,1045.62Z"/><path class="cls-8" d="M1124.85,1034.32v0a0,0,0,0,1,0,0Z"/><path class="cls-8" d="M1129.91,1037.67c2.92-7.51,4.09-20.15-.18-20.39-5.46,2.34-1.86,12.1-4.87,17a18.53,18.53,0,0,1-1,2.94,9.93,9.93,0,0,0-.92,3.66C1125.32,1045.33,1128,1042.6,1129.91,1037.67Z"/><path class="cls-8" d="M1083.05,1035.49c3.79,1.66,4.28,3.54,3.32,5.41a24.32,24.32,0,0,1,2.58.87,13.12,13.12,0,0,1,.74,1.57c3.66,0,3.61-2.35,1.57-5.57-3.38-5.33-12.18-13.15-18.63-17.29a6.12,6.12,0,0,1-1.62,2c0,.11,0,.21,0,.32a2.47,2.47,0,0,1-1,2.14,42.21,42.21,0,0,1,3.78,2.91C1077.37,1028.55,1080.82,1031,1083.05,1035.49Z"/><path class="cls-9" d="M1071,1022.78c0-.11,0-.21,0-.32a6.12,6.12,0,0,0,1.62-2,5.69,5.69,0,0,0,.26-.56c1.3-.12,2.07-1.16.74-4.63-8.16-13-25.21,2.12-9.63,8.52a3.18,3.18,0,0,0,2.1.7,3,3,0,0,0,4,.41A2.47,2.47,0,0,0,1071,1022.78Zm-6.17-7.15-.62.28C1064.87,1015.06,1065.06,1015.71,1064.87,1015.63Z"/><path class="cls-10" d="M1122.91,1015.76a2.66,2.66,0,0,0,2.88-3,.66.66,0,0,1,0,.14c0-1.45-.1-2.8-.19-4.07a14.5,14.5,0,0,0-1.36-9.1,6.25,6.25,0,0,0-.38-.61c-1.65-4.88-3.88-5.32-4.74-1.48a3.11,3.11,0,0,0-.79,3.46,10,10,0,0,0,.44,1.18l0,.78a61.32,61.32,0,0,0,1.53,10.4A2.51,2.51,0,0,0,1122.91,1015.76Z"/><path class="cls-10" d="M1176.19,1027.22a4.25,4.25,0,0,0,3.37.46c2.66-.8,4.67-4.39,6.49-7.93,1.36-2.64,2.61-5.25,4-6.65C1190.39,999.88,1174.46,1024.12,1176.19,1027.22Z"/><path d="M1141.9,492.76l5.85,1.21q-5.13-1.26-9.89-2.47Z"/><path d="M1335,551.12l-.08-.06,0,0Z"/><path d="M1249.75,822.74l0-.08q-9.64-.54-19.28-1.2l.22.21Q1240.22,822.29,1249.75,822.74Z"/><path d="M1341.93,558.26l-.35.18c.51,3.24.92,6.55,1.26,9.9C1342.58,565,1342.29,561.61,1341.93,558.26Z"/><path class="cls-11" d="M1316.24,542a11.83,11.83,0,0,0-2.35.56,190.36,190.36,0,0,0-20.42-9.45c-9.45-3.44-19.7-6.92-30.51-10.37-3.07,1.71-6.91,2.35-11.76,1.41q-31.68.86-35.93-15c-25.57-6.37-50.1-11.57-67.52-15.18l-5.85-1.21-9.14-1.88c-1.53-.74-3.12-1.46-4.74-2.16-33.26-6.07-62.7-9.27-81.72-7.66a90.87,90.87,0,0,0-.41,11.21c-4.4,14.88,6.4,45.9-1.08,61.61,11.86-8.13,23.75-16.1,35.78-23.9-.07.13-.15.25-.21.37,8.86-6.78,17.76-12.52,23.32-14.74.07-.07.13-.16.2-.23l.28-.29c-.09.1-.2.19-.29.29l-.86.35.06,0c.38-.24.75-.44,1.13-.66,2.56-2.69,7.59-4.13,11.9-3.72a8.78,8.78,0,0,1,3.1.7,6.85,6.85,0,0,1,3.78,3.1v0a7.05,7.05,0,0,1,.57,4.59c.17,2.13.35,4.28.52,6.43.08-.3.14-.6.21-.89,0,.67-.08,1.34-.12,2,.82,10.08,1.51,20.34.74,30.58,0-.2,0-.19,0,.12a.49.49,0,0,0,0-.12c-.13,1-.92,7.87-1.27,10.94.3,70.88-1.94,146.38-11.63,216.48l0-3.81a12,12,0,0,1-.17,1.27q0,3.32.1,6.65v-.16q0,4.57,0,9.16v-.17c-.88,5.24-.74,11.4-.33,17.87,0-.09.05-.19.08-.28,8.95,4,31-4.43,41.76-1.78a206.08,206.08,0,0,1,30.71,2.19,41.72,41.72,0,0,1,5.07-8.63l-.17,0,.24-.14a.86.86,0,0,1-.07.1c.76-.17,1.53-.32,2.32-.43.27-.2.52-.42.8-.61.35.15.72.29,1.1.42,7.83-.53,16.92,2,24.85,6.1,4.52,1.61,8.48,3.85,11,7.28.43.37.84.74,1.25,1.11q9.63.66,19.28,1.2a27,27,0,0,1,2.84-5.34c.43-.74.87-1.46,1.32-2.14.42-.21.85-.39,1.27-.58a10.47,10.47,0,0,1,7.37-2c5.71-.74,11.78,0,17.88,1.1,9.37-.2,19.93-.56,26.55,2,4.28-.63,8.45-1.13,11.33-2.25.61.22,1.14.44,1.65.68,3.12-2.34,6-3.19,8.3-2.93q.43-7.43,1.07-15.05c-.44,1.4-.89,2.79-1.36,4.17-5.65-43.61,11.85-96.08,12-142.71,0,.42,0,.43,0-.07v.07c.2-3.38,1.92-33.36,2-37.46.33-.21.63-.39.93-.56a246.43,246.43,0,0,1,1-30.93c-.12-6.93-.48-13.74-1.15-20.33-.34-3.35-.75-6.66-1.26-9.9v-.05a87.29,87.29,0,0,0-6.6-7.29l0,0-.82-.78C1329.06,547.62,1323,544.84,1316.24,542Z"/><path d="M783.91,899.31v-.21l-.57-1.43Z"/><path d="M1263,522.71c10.81,3.45,21.06,6.93,30.51,10.37a190.36,190.36,0,0,1,20.42,9.45,11.83,11.83,0,0,1,2.35-.56c6.79,2.87,12.82,5.65,17.88,8.31,2,1,3.78,2,5.45,3,37-18.7-33.88-34.34-68.53-40.27C1269.17,517.17,1266.61,520.68,1263,522.71Z"/><path d="M1246.4,832a11.41,11.41,0,0,1,1.54-4.61l.15-.4c.48-1.25,1-2.51,1.45-3.72a163.42,163.42,0,0,1-17.72-.52c.39.4.78.81,1.14,1.21-.12-.22-.25-.45-.39-.67l.41.69,0,0a12,12,0,0,1,1.11,2.84l-.06-.15a6.16,6.16,0,0,1-3.42,8.6l14.22,2.93C1245.27,836.07,1245.8,834,1246.4,832Z"/><path d="M1343,619.6c-.3.17-.6.35-.93.56-.12,4.1-1.84,34.08-2,37.46-.13,46.63-17.63,99.1-12,142.71.47-1.38.92-2.77,1.36-4.17q-.63,7.62-1.07,15.05a6.1,6.1,0,0,1,2,.57c.56-.21,1.08-.42,1.57-.65a357.52,357.52,0,0,0,6.13-40,1.69,1.69,0,0,0,.11-1.13c2-19.75,3.11-40.84,3.76-60.58,1.28-17.31,2.58-34.56,5-50.87.17-2.95.95-14.95,1.13-17.45-.29-4.59,3.11-19.78-1.1-22.06,2.53-20.15,6.13-40.19,9.64-60.17-23.09-10.26-8.86,15.75-12.46,28.61l-.12,1.22A246.43,246.43,0,0,0,1343,619.6Z"/><path d="M1124.92,557.86a.49.49,0,0,1,0,.12C1125,557.67,1124.94,557.66,1124.92,557.86Z"/><path d="M1347,658.14c0,.13,0,.25,0,.38C1346.85,659.43,1346.85,659.49,1347,658.14Z"/><path d="M1348,641.07v.12C1348.08,640.41,1348.07,640.46,1348,641.07Z"/><path d="M1340,657.62v-.07C1340,658.05,1340,658,1340,657.62Z"/><path d="M820.49,1100.49c.17,0,.19-.25,0-.17Z"/><path d="M839.62,1050.75c-.62.07-1.25.15-1.9.25a5.17,5.17,0,0,1,1,.33Z"/><path d="M838.17,1060.84c-.1.15-.18.29-.28.45h-.19c-5.77,5.33-18.46,7.15-28,10.63-1.63,1-3.26,2.08-4.88,3.13a30.64,30.64,0,0,1,7.21,7.87,34.7,34.7,0,0,1,5.19,9.22c5.4-3.18,16.31-2.05,20.92-8.45a7.22,7.22,0,0,1,1.18-.59c1.94-9.66,10.34-13.25,24.14-16.87l-.08.07c5.22-1.14,10.55-2.51,15.86-3.9-1.38-3.56-.57-5.69,1.55-7.73.35-1.87,1.71-3.2,4.25-3.31l.68-.48a10.93,10.93,0,0,1,2.52-.56c-1.12-.4-2.2-.73-3.24-1a25.75,25.75,0,0,0,5.55-18.86,38.26,38.26,0,0,0-3.94-11.27,154.17,154.17,0,0,0,43.46,24.62,102.64,102.64,0,0,0,10.37-4q.38-1.36.87-2.73a19.4,19.4,0,0,1-8.95,1c-15.71-.07-28-9.72-41.46-15.8h0c-1.15-4.08-.19-5.59,2.06-5.55a223.26,223.26,0,0,1-20.74-19.64c16.47-47.34,27.21-125.13,32-190.91,26.45,19.19,54.62,37.38,77.79,58.45,0,.27,0,.55,0,.85-1.37,11.46-1.32,17.6,4.57,19.15-14.51,6.09,2.36,19.71,25.45,33.22-8,32.55-18.4,64.71-39.54,90a34.62,34.62,0,0,1,8.89-1.05c18-23.25,29.25-53.65,37.42-85C1034.59,930.57,1052,939,1064,945c7.49,6.3,26.72,15.32,38.26,18.83-3.48.47-5.29,1.74,0,2.71,2.39,1.11,10.42,3.55,9.87-.6l.3.14a118.72,118.72,0,0,0,29.4-.91c3.4-.32,6.81-.74,10.22-1.22,18.47-.77,37.26-2.62,44.71-7.87,11.66.2,20.5-.71,27-2.48a.56.56,0,0,1,0,.12c4.21.26,7.07-.14,8.93-1,2.79.47,5.59-1,8.12-3.33,5.38,6,13.35-9.26,12.8-17.41a37.64,37.64,0,0,0-2.92-2.45c-2.93-4.8-11.58-7.31-17.58-3.43-.86-1.25-1.79-2.5-2.82-3.76a13.54,13.54,0,0,1,1.17-4.53q-8.57-5.49-17.22-10.83a151.64,151.64,0,0,0-32.62-19.69l-.65-.4-.09-.06h0c-19.38-16.21-45.62-32.57-68-46.39.06-5.11-.29-10.46-.7-15.78,20.13.3,49.89-1.41,54.6,1.16,5.63.29,11.22.79,16.8,1.43.07-.84.15-1.68.25-2.5-1.17-2-1.21-4.76.29-8.46a206.08,206.08,0,0,0-30.71-2.19c-10.74-2.65-32.81,5.81-41.76,1.78,0,.09-.05.19-.08.28-.41-6.47-.55-12.63.33-17.87v.17q0-4.59,0-9.16v.16q-.07-3.33-.1-6.65a12,12,0,0,0,.17-1.27l0,3.81c9.69-70.1,11.93-145.6,11.63-216.48.35-3.07,1.14-9.9,1.27-10.94.77-10.24.08-20.5-.74-30.58,0-.68.09-1.35.12-2-.07.29-.13.59-.21.89-.17-2.15-.35-4.3-.52-6.43a7.05,7.05,0,0,0-.57-4.59v0a6.85,6.85,0,0,0-3.78-3.1,8.78,8.78,0,0,0-3.1-.7c-4.31-.41-9.34,1-11.9,3.72-.38.22-.75.42-1.13.66l-.06,0,.86-.35c.09-.1.2-.19.29-.29l-.28.29c-.07.07-.13.16-.2.23-5.56,2.22-14.46,8-23.32,14.74.06-.12.14-.24.21-.37-12,7.8-23.92,15.77-35.78,23.9,7.48-15.71-3.32-46.73,1.08-61.61a90.87,90.87,0,0,1,.41-11.21c19-1.61,48.46,1.59,81.72,7.66,27.68,5,58,12.07,87.12,19.95a22.75,22.75,0,0,1-.35-7.95c-54.1-14.54-138-37.84-168.33-27-.3-7.52-2.66-13.63-12.17-12.53-11.42,2-4.77,14.91-8.12,20.34-2.9,28.46-.51,58.63-3.64,87.81-2.2,1.55-4.39,3.08-6.59,4.64-1.48,1.64-4,3.08-6.54,4.57a7.29,7.29,0,0,0-10.49,3.61c0,25.31-1.39,50.7-3.17,76.16-.72-.07-1.45-.11-2.17-.13C980.32,665,893,689.89,881.29,691.06c-27.39,9.19-56.53,9.51-84.56,16.27-13.24,1.18-31.38,13.55-42.78,6.26,3.43-1.29,6.92-2.5,10.45-3.68-2.27.32-4.53.64-6.8.94-19.71,10.73-3.88,37.65,15.75,31.73a27.88,27.88,0,0,1,3.09-.87c-3.1,25.15-5.36,50.32-6.57,76.6,1.9,15.21-4.59,36.7-1.85,52.93-3.17,8.66-.2,20.52,10.13,23.06a20.5,20.5,0,0,0,5,.69,11.47,11.47,0,0,1,.74,4.11c11.92,30.13,23.85,62.66,35.18,93.87-.29-.54-.55-1.06-.77-1.55-17.35-4.61-2.43,15,12.25,33.16q3.28,9,6.48,17.75a32.56,32.56,0,0,0,5,8.23c-.63,0-1.28.08-1.94.14C841.53,1055.13,840.58,1058.35,838.17,1060.84Zm17.44-188.33c-1.32,20.61-6.18,40.64-12.76,55.13-3.24,7.77-6.88,13.08-10.86,14.84a251.7,251.7,0,0,0,9.2-32.67c-.27-12.57-1.28-25.47.94-33.09,1-4.78.34-7.77-1.08-10,2.32-15.48-2.44-40.6,5.19-52.4-11.44-14.68-8.6-33.39-4.61-51.2,1.06-4,2.37-8.59,3.7-13.43a112,112,0,0,0,7.52,9.13v-.36A10.83,10.83,0,0,1,854,760.1c.81.88,1.64,1.76,2.46,2.63-.05,1-.11,2-.16,3.1C861.87,785.06,861.12,831.83,855.61,872.51Zm-46.81-130a51.26,51.26,0,0,0,1.51,6.92c.55,2.93,1,5.91,1.27,8.9-1.65,8.55-1.18,20.24.16,32.93-.28,4.5-.62,9-1,13.5-6.08,5.22-6.9,18.72-1.58,25.81-.13,5-.09,10,.22,14.76-2.83,7.82-3.48,22.45,0,26.49a6.89,6.89,0,0,1,1.54,2.6c-.46,3-.83,6.08-1.12,9.27a26.68,26.68,0,0,0-2.62,1.14c.05-.91.12-1.92.23-3,1.06-13.27-6.06-21.9-14.35-24.08,5.92-33,4-84.58,8.51-100.41l0-.69C803.05,751.09,805.25,746.16,808.8,742.46Zm-14,153.2,2.68,4.67a13.75,13.75,0,0,1-.72,1.62l-.87-1.69c-.13-.18-.24-.35-.35-.52C795.24,898.41,795,897,794.75,895.66Zm77.44,79.18c-1.48,6-3,11.8-4.59,17.27l-3.48-3.89a2.33,2.33,0,0,1-1.28-.93c0-.13.07-.27.11-.41-4.69-5.34-9.1-10.63-13.16-15.56l.24.31c-.65-.74-1.36-1.6-2.12-2.57a147.84,147.84,0,0,1-12.32-20.41c37.69-27.75,23.76-129,26.6-180a155.67,155.67,0,0,1,14.15,16c5.77,4.84,11.77,9.55,17.91,14.17,0-.21,0-.41.07-.62,1.35-.49,2.34.58,3,2.93l0,0v.13C903,821.91,885.6,935.52,872.19,974.84ZM1010.92,589.7a22.86,22.86,0,0,0-2.34,5.66c0-1.73.09-3.46.13-5.19C1009.45,590,1010.18,589.88,1010.92,589.7Zm-26.3,124.59c3-3.22-.74-1.79,6.93-1.49-2.58,32.66-4.92,65.41-5.34,98.19a3.55,3.55,0,0,1,0,1.56c0,.24,0,.49,0,.73,5,6.07,5.5,11.07-7,9.94-11.34-13.89-80.78-49.74-66.26-65.47,5.73,1.2,11,4.07,15.94,7.77-7.51-6.95-14.83-14-21.88-21.31.06-5.6.06-10.9,0-15.84,9.31-2,24-5,19.82-4.19C945.44,718.05,967.09,721.88,984.62,714.29Zm-88.4,29.79a97.38,97.38,0,0,1,.29-11.07c-.61-.68-1.24-1.36-1.84-2l2.26-.47C906.6,711.28,905.94,761.37,896.22,744.08Z"/><path d="M807.62,1097.11a.4.4,0,0,1-.07-.18,1.21,1.21,0,0,1,0,.18c.15.32.29.65.43,1l-.37-1.09Z"/><path class="cls-12" d="M795.84,900.26l.87,1.69a13.75,13.75,0,0,0,.72-1.62l-2.68-4.67c.24,1.38.49,2.75.74,4.08C795.6,899.91,795.71,900.08,795.84,900.26Z"/><path class="cls-12" d="M964.68,791.27c-9.51-3.07-19.72-20.56-29.27-20.37-2.14-1.91-4.31-3.73-6.53-5.38-5-3.7-10.21-6.57-15.94-7.77-14.52,15.73,54.92,51.58,66.26,65.47,12.48,1.13,11.95-3.87,7-9.94l-.17-.21a2.47,2.47,0,0,0,.18-.52,3.55,3.55,0,0,0,0-1.56C985.05,804.74,970.56,794.16,964.68,791.27Z"/><path class="cls-12" d="M903.77,1056.61l.12,0c-4.39-3.85-10.27-6.85-15.67-6.25a10.93,10.93,0,0,0-2.52.56l-.68.48c-2.54.11-3.9,1.44-4.25,3.31-2.12,2-2.93,4.17-1.55,7.73C887.6,1060.22,896,1058,903.77,1056.61Z"/><path class="cls-12" d="M804.8,1075.06c1.62-1,3.25-2.1,4.88-3.13,9.56-3.48,22.25-5.3,28-10.63h.19c.1-.16.18-.3.28-.45,2.41-2.49,3.36-5.71,2-10.14a2,2,0,0,1-.07-.23l-.43.28-.85.58a5.17,5.17,0,0,0-1-.33c-7.86-1.72-29.62,7.61-45.3,17.61A39.4,39.4,0,0,1,804.8,1075.06Z"/><path class="cls-12" d="M969.91,660.27h0l.41-.15Z"/><path class="cls-12" d="M796.73,707.33c28-6.76,57.17-7.08,84.56-16.27,11.7-1.17,99-26,112.28-32.84,4.92-2.53-.39-2.57-23.65,2-28.32,10.33-58.85,17.08-89.49,23.12-4.11-.1-10.07.62-17.75,2.68l-1.9.39.12,0c-4.06,2-12.11,1.39-16.35,3.9-27.86,5.43-55.12,11.23-80.15,19.58-3.53,1.18-7,2.39-10.45,3.68C765.35,720.88,783.49,708.51,796.73,707.33Z"/><path class="cls-12" d="M945.09,1029.4c-5.2,2-10.57,3.17-16.37,1.75-7.06,2.47-28.37-14.28-35.75-14.4-2.25,0-3.21,1.47-2.06,5.55h0c13.5,6.08,25.75,15.73,41.46,15.8a19.4,19.4,0,0,0,8.95-1A39.26,39.26,0,0,1,945.09,1029.4Z"/><path class="cls-12" d="M852.86,758.47v.36c-.55,48.65-1.58,104.22-11.66,151a251.7,251.7,0,0,1-9.2,32.67c4-1.76,7.62-7.07,10.86-14.84,5.46-13.11,9.8-33.24,12.76-55.13,5.51-40.68,6.26-87.45.7-106.68a25.29,25.29,0,0,0-2.3-5.73A10.83,10.83,0,0,0,852.86,758.47Z"/><path class="cls-12" d="M894.32,798.23c0,.21-.05.41-.07.62-6.66,61.34-16.87,131.35-31.3,188,0,.14-.07.28-.11.41a2.33,2.33,0,0,0,1.28.93c2.29.47,5.08-4.61,8.07-13.38,13.41-39.32,30.83-152.93,25.2-173.51a1.09,1.09,0,0,1,0-.17C896.66,798.81,895.67,797.74,894.32,798.23Z"/><path class="cls-12" d="M896.69,731c-.07.68-.12,1.35-.18,2a97.38,97.38,0,0,0-.29,11.07c9.72,17.29,10.38-32.8.71-13.58C896.85,730.66,896.77,730.81,896.69,731Z"/><path class="cls-13" d="M949.19,1025l-.33.41.7.09A2.56,2.56,0,0,1,949.19,1025Z"/><path class="cls-13" d="M946.08,1040.59l.06-.1c0,.1-.07.19-.11.29,0-.06,0-.13.05-.19-2.06,2.88-.73,9.65-5.1,9.81a6.26,6.26,0,0,1-1-2.16,31.35,31.35,0,0,0,.48,6.43c3.46-5.53,15.39-10.59,29.54-13.93-2-4.28-6.89-8.23-16.43-11.59C952.44,1032.22,947.1,1036.6,946.08,1040.59Z"/><path class="cls-13" d="M967.15,1053.5a126.12,126.12,0,0,0-14.51,4.11c4.33.08,8.65.18,13.08.53A8.79,8.79,0,0,1,967.15,1053.5Z"/><path class="cls-13" d="M955.28,1017.82a2.32,2.32,0,0,1-.24-.47l-.49.45A4.51,4.51,0,0,1,955.28,1017.82Z"/><path class="cls-13" d="M946.89,1026.93l.31-.35h-.08Z"/><path class="cls-13" d="M1012.85,1037.12l1.22.14,0-.34a5.7,5.7,0,0,1-.72-.29A6.15,6.15,0,0,1,1012.85,1037.12Z"/><path class="cls-13" d="M1025.2,1054.3l-.06.32c.21.34.42.69.61,1.05a37.39,37.39,0,0,0,1.5-6.66h-1.69A7.46,7.46,0,0,1,1025.2,1054.3Z"/><path class="cls-13" d="M985.07,1059.4a4.88,4.88,0,0,1,1.58-4.87c.16-1.84,1.89-3.55,6-4.47a15.17,15.17,0,0,0,6,1.13c.09-.56.16-1.12.2-1.67-5.61.29-11.28.75-16.94,1.46a43,43,0,0,1-1.43,8.27A27,27,0,0,1,985.07,1059.4Z"/><path class="cls-13" d="M964.9,1021.88c5.47,3,11,7.78,14.06,13.07a24.4,24.4,0,0,1,5-5.89,4.5,4.5,0,0,1,2.23-1.79,15.87,15.87,0,0,1,3.2-1.87c4.24,0,5.29,1.71,4.64,4h0a8.46,8.46,0,0,1,1.24,0c-2.78-5.89-7.14-10.79-12.26-13.05-.08.24-.15.48-.25.73C976,1016.07,970.44,1019.48,964.9,1021.88Z"/><path class="cls-13" d="M1006.56,1019c-1.74-.58-3.66-1.11-5.56-1.74a48,48,0,0,1,6.56,14.4c2.14-3,7.23-5.08,10.77-4.3a3.31,3.31,0,0,1,2.91-1,40.92,40.92,0,0,0-11.78-10.22C1010,1017.07,1009.26,1018,1006.56,1019Z"/><path class="cls-13" d="M1027.35,1041.46a29.74,29.74,0,0,0-3.41-11,46.11,46.11,0,0,1,1.09,9.69A17.13,17.13,0,0,1,1027.35,1041.46Z"/><path class="cls-13" d="M993.15,1009.54a1.56,1.56,0,0,1,.54-.25c-.41-.16-.82-.33-1.22-.47A1.8,1.8,0,0,1,993.15,1009.54Z"/><path class="cls-13" d="M996.24,1036.86l1.57-.08c-.08-.37-.17-.75-.26-1.12A4.4,4.4,0,0,1,996.24,1036.86Z"/><path class="cls-13" d="M989.27,1037.45c1.27-.14,2.54-.26,3.8-.36a5.91,5.91,0,0,1-1.85-1.13A5,5,0,0,0,989.27,1037.45Z"/><path class="cls-13" d="M971.21,1008.16a24.86,24.86,0,0,1,4.55-.07l.31,0a6.39,6.39,0,0,1,2.67-.43,25.34,25.34,0,0,1,8.68.27h.08c1.28.14,2.55.39,3.83.57h.15a34.26,34.26,0,0,0-10.12-1.71,34.62,34.62,0,0,0-8.89,1.05Q971.83,1008,971.21,1008.16Z"/><path class="cls-13" d="M1015.92,1072.68a9.08,9.08,0,0,1-1.53-.46,17.12,17.12,0,0,1-2.83,1,8.11,8.11,0,0,1,.14.86c.93.08,1.83.19,2.68.35C1014.91,1073.82,1015.42,1073.25,1015.92,1072.68Z"/><path class="cls-13" d="M992.23,1073.1h0v0Z"/><path class="cls-13" d="M999.65,1081.78l-.12,0C998.76,1081.82,999.13,1082.1,999.65,1081.78Z"/><path class="cls-14" d="M991.74,1008.54h0Z"/><polygon class="cls-14" points="987.42 1007.9 987.42 1007.9 987.42 1007.9 987.43 1007.9 987.42 1007.9"/><polygon class="cls-14" points="987.43 1007.9 987.44 1007.9 987.43 1007.9 987.43 1007.9 987.43 1007.9"/><path class="cls-14" d="M992.69,1072a6.49,6.49,0,0,1-.43,1v0l1.62.11C993.48,1072.83,993.08,1072.43,992.69,1072Z"/><path class="cls-14" d="M987.42,1007.9a25.34,25.34,0,0,0-8.68-.27C980.56,1007.56,983.37,1007.63,987.42,1007.9Z"/><path class="cls-14" d="M952.47,1019.62a2.06,2.06,0,0,1,.16-.69,4.09,4.09,0,0,0-3,3.43A27.53,27.53,0,0,1,952.47,1019.62Z"/><path class="cls-14" d="M952.94,1021.92a.43.43,0,0,0,0,0h0Z"/><path class="cls-14" d="M975.6,1066.86c.07.22.24,0,.41-.06h0Z"/><path class="cls-14" d="M1025.75,1055.67c-.19-.36-.4-.71-.61-1.05,0,.08-.05.17-.07.26.92,2.36.92,6.08,0,9.52a13.35,13.35,0,0,1,2.52-1.38A16.44,16.44,0,0,0,1025.75,1055.67Z"/><path class="cls-14" d="M1018.33,1027.31a4.45,4.45,0,0,1,3.66,4.61c2,3.95.64,9.11-5.69,5.39a7.07,7.07,0,0,1-2.2-.39l0,.34-1.22-.14a4.49,4.49,0,0,1-4.63.89c-2.17-2.2-2-4.49-.66-6.4a48,48,0,0,0-6.56-14.4,22.87,22.87,0,0,1-6.92-3.38c-.8,1.84-3.18,3.31-6.75,2.11a17.37,17.37,0,0,1-4-3.43,6.74,6.74,0,0,1-.27,3.88c5.12,2.26,9.48,7.16,12.26,13.05,3.69.36,3.86,4,2.23,6.22.09.37.18.75.26,1.12l-1.57.08a3.64,3.64,0,0,1-3.17.23c-1.26.1-2.53.22-3.8.36-2.6,2.94-4.33,8.43-8.79,5.27,0-.06-.05-.12-.07-.17-3.34-1.64-3.15-4.58-1.45-7.6-3-5.29-8.59-10.07-14.06-13.07l-.17.07c-1.44-.38-3.18-.84-4.78-1.4,1.18,2,.25,4.66-6.39,6.79a2.28,2.28,0,0,1,0,1.81c9.54,3.36,14.4,7.31,16.43,11.59-14.15,3.34-26.08,8.4-29.54,13.93a6.24,6.24,0,0,0-1,2.64l1.22-.07c4.09.24,8,.3,12,.37a126.12,126.12,0,0,1,14.51-4.11,11.07,11.07,0,0,1,.76-1c.11-3.5,3.74-7.63,7.51-7.11,4.16.74,4.18,4.61,2.38,7.66a8.37,8.37,0,0,1-.69,6.34c1.09,0,2.21-.06,3.33-.1a43,43,0,0,0,1.43-8.27c5.66-.71,11.33-1.17,16.94-1.46,0,.55-.11,1.11-.2,1.67,9.65,0,19.65-7.35,26.8-2.75.06.2.1.38.15.57h4c.06-.87.14-1.73.25-2.59v.08a6.3,6.3,0,0,1,.43-2.28,10.49,10.49,0,0,0-2.86-2.76,17.13,17.13,0,0,0-2.32-1.32,46.11,46.11,0,0,0-1.09-9.69c-.59-2.24-1.45-3.8-2.7-4.14A3.31,3.31,0,0,0,1018.33,1027.31Z"/><path class="cls-15" d="M986.65,1054.53a4.88,4.88,0,0,0-1.58,4.87,6.83,6.83,0,0,1,4.38,2c3.26,4.69,4.06,8,3.24,10.6.39.4.79.8,1.19,1.18,2.88.2,5.77.43,8.72.7,2.9,0,6.15-.1,9.1.12a8.11,8.11,0,0,0-.14-.86,17.12,17.12,0,0,0,2.83-1,9.08,9.08,0,0,0,1.53.46,6.59,6.59,0,0,0,1.3.13c.19-.23.37-.46.58-.69a30.22,30.22,0,0,1,7.31-7.72c.88-3.44.88-7.16,0-9.52-1.75,5.76-15.79,16.57-25.21,13.12-25.51-13.78,1-10.54,14-14.8h0c8.82-3,11.82-1.69,11.36,1.1a7.46,7.46,0,0,0,.36-5.29c0-.19-.09-.37-.15-.57-7.15-4.6-17.15,2.76-26.8,2.75a15.17,15.17,0,0,1-6-1.13C988.54,1051,986.81,1052.69,986.65,1054.53Z"/><path class="cls-15" d="M994.05,1029.43c.65-2.32-.4-4-4.64-4a15.87,15.87,0,0,0-3.2,1.87,4.5,4.5,0,0,0-2.23,1.79,24.4,24.4,0,0,0-5,5.89c-1.7,3-1.89,6,1.45,7.6C977.21,1035.87,987.55,1028.28,994.05,1029.43Z"/><path class="cls-15" d="M1014.69,1033.9a4.31,4.31,0,0,1-1.31,2.73,5.7,5.7,0,0,0,.72.29,7.07,7.07,0,0,0,2.2.39c6.33,3.72,7.73-1.44,5.69-5.39a5.4,5.4,0,0,1,0,.7C1020.58,1036.58,1017,1033.29,1014.69,1033.9Z"/><path class="cls-16" d="M972.43,1058.86a15.13,15.13,0,0,0,4.68.49,8.37,8.37,0,0,0,.69-6.34c1.8-3,1.78-6.92-2.38-7.66-3.77-.52-7.4,3.61-7.51,7.11a11.07,11.07,0,0,0-.76,1,8.79,8.79,0,0,0-1.43,4.64C967.92,1058.31,970.14,1058.53,972.43,1058.86Z"/><path class="cls-17" d="M1025.2,1054.3c.46-2.79-2.54-4.06-11.36-1.1h0c-13,4.26-39.5,1-14,14.8,9.42,3.45,23.46-7.36,25.21-13.12,0-.09,0-.18.07-.26Z"/><path class="cls-18" d="M994.08,1029.43h0c-6.5-1.15-16.84,6.44-13.64,13.12,0,0,0,.11.07.17,4.46,3.16,6.19-2.33,8.79-5.27a5,5,0,0,1,2-1.49,5.91,5.91,0,0,0,1.85,1.13,3.64,3.64,0,0,0,3.17-.23,4.4,4.4,0,0,0,1.31-1.2c1.63-2.21,1.46-5.86-2.23-6.22A8.46,8.46,0,0,0,994.08,1029.43Z"/><path class="cls-18" d="M1008.22,1038a4.49,4.49,0,0,0,4.63-.89,6.15,6.15,0,0,0,.53-.49,4.31,4.31,0,0,0,1.31-2.73c2.32-.61,5.89,2.68,7.31-1.28a5.4,5.4,0,0,0,0-.7,4.45,4.45,0,0,0-3.66-4.61c-3.54-.78-8.63,1.28-10.77,4.3C1006.21,1033.52,1006.05,1035.81,1008.22,1038Z"/><path class="cls-19" d="M958.86,1012.79l-.24.14h0c-3.16,1.76-4,3.22-3.59,4.43a2.32,2.32,0,0,0,.24.47,6.53,6.53,0,0,1,4.67,2.73c1.6.56,3.34,1,4.78,1.4l.17-.07c5.54-2.4,11.08-5.81,17.91-4.76.1-.25.17-.49.25-.73a6.74,6.74,0,0,0,.27-3.88,13.46,13.46,0,0,1-1.44-1.91c-.68-.17-1.34-.34-1.95-.51,5.87,4.07-17.67,9.2-17,5.67.93-4.32,8.4-4.93,11.93-7.46l-.23.09.27-.11,0,0a2.73,2.73,0,0,1,.84-.21,24.86,24.86,0,0,0-4.55.07c-4.9.5-10,2.28-12.46,4.69Z"/><path class="cls-19" d="M940,1048.24a6.26,6.26,0,0,0,1,2.16c4.37-.16,3-6.93,5.1-9.81,1-4,6.36-8.37,7.46-11.44a2.28,2.28,0,0,0,0-1.81c-.43.14-.89.28-1.37.41-1.16-.17-1.59-1.3-2.39-2l.24.18a3.52,3.52,0,0,1-.48-.45l-.7-.09a3.28,3.28,0,0,1-1.66,1.17l-.31.35a26.41,26.41,0,0,0-1.8,2.47,39.26,39.26,0,0,0-3.8,7.68q-.49,1.37-.87,2.73C939.58,1042.92,939.29,1045.92,940,1048.24Z"/><path class="cls-19" d="M946.14,1040.49l-.06.1c0,.06,0,.13-.05.19C946.07,1040.68,946.11,1040.59,946.14,1040.49Z"/><path class="cls-19" d="M994.13,1009.22l.09,0h0Z"/><path class="cls-19" d="M993.36,1010.28a2.94,2.94,0,0,1,.72,3.55,22.87,22.87,0,0,0,6.92,3.38c1.9.63,3.82,1.16,5.56,1.74,2.7-.91,3.39-1.88,2.9-2.86-1.41-2.78-12.63-5.57-15.24-6.83a1.5,1.5,0,0,0-1.07.28A1.91,1.91,0,0,1,993.36,1010.28Z"/><path class="cls-20" d="M955.28,1017.82a4.51,4.51,0,0,0-.73,0,2.1,2.1,0,0,0-1.92,1.13,2.06,2.06,0,0,0-.16.69,27.53,27.53,0,0,0-2.83,2.74,13.94,13.94,0,0,0-2.86,4.29,3.43,3.43,0,0,0,.34-.06h.08a3.28,3.28,0,0,0,1.66-1.17l.33-.41a2.56,2.56,0,0,0,.37.5,3.52,3.52,0,0,0,.48.45l-.24-.18c.8.68,1.23,1.81,2.39,2,.48-.13.94-.27,1.37-.41,6.64-2.13,7.57-4.81,6.39-6.79A6.53,6.53,0,0,0,955.28,1017.82Zm-2.34,4.1,0,0h0A.43.43,0,0,1,952.94,1021.92Z"/><path class="cls-20" d="M987.5,1007.91h-.08c-4-.27-6.86-.34-8.68-.27a6.39,6.39,0,0,0-2.67.43,3.17,3.17,0,0,1,1.28.28h0l.28.12a2,2,0,0,0-.26-.11c.25.11.47.22.69.34h0l.06,0,0,0a6.1,6.1,0,0,1,1.25,1l0,0,.06.07h0a3.78,3.78,0,0,1,.61.37c.61.17,1.27.34,1.95.51a13.46,13.46,0,0,0,1.44,1.91,17.37,17.37,0,0,0,4,3.43c3.57,1.2,5.95-.27,6.75-2.11a2.94,2.94,0,0,0-.72-3.55,1.91,1.91,0,0,0-.21-.74,1.8,1.8,0,0,0-.68-.72,2.52,2.52,0,0,0-.73-.28h0l-.24,0h-.15C990.05,1008.3,988.78,1008.05,987.5,1007.91Z"/><path class="cls-20" d="M987.43,1007.9h0Z"/><path class="cls-21" d="M963,1015.76c-.72,3.53,22.82-1.6,17-5.67a3.78,3.78,0,0,0-.61-.37h0l-.06-.07,0,0a6.1,6.1,0,0,0-1.25-1c-.22-.12-.44-.23-.69-.34a3.17,3.17,0,0,0-1.28-.28l-.31,0a2.73,2.73,0,0,0-.84.21C971.39,1010.83,963.92,1011.44,963,1015.76Z"/><path class="cls-21" d="M974.69,1008.39l.23-.09,0,0Z"/><path class="cls-21" d="M978,1008.67h0l0,0Z"/><path class="cls-21" d="M977.33,1008.33h0a2,2,0,0,1,.26.11Z"/><path class="cls-22" d="M1054.41,1053.12l.41.42a6.9,6.9,0,0,1,3.91-3.69c3.65-.1,5.53,8.38,5.38,16.36,6.14,6.76,9.9,15.51,7.72,23.73a7,7,0,0,0,1-.08c8.21,1,13.58-.45,16.12-3.66a7.75,7.75,0,0,0,1.53-3.4c.7-3.55-.62-8.19-4-13.48-.32-8.8,5.86-17.42,3.47-25.2q-.12-.39-.27-.78a13.12,13.12,0,0,0-.74-1.57,24.32,24.32,0,0,0-2.58-.87c-1.41,2.71-5.92,5.39-7.87,7.26-8.93-3-14.57,3.87-16.59-3.42a18.25,18.25,0,0,1-1.08-4.73c-3.9.77-7.07,2.06-8.68,3.91C1054.56,1046.06,1055.33,1049.57,1054.41,1053.12Z"/><path class="cls-23" d="M1078.5,1048.16c2-1.87,6.46-4.55,7.87-7.26,1-1.87.47-3.75-3.32-5.41-2.23-4.51-5.68-6.94-9.21-7.66-6.75-1.38-13.76,3.52-13,12.18a18.25,18.25,0,0,0,1.08,4.73C1063.93,1052,1069.57,1045.17,1078.5,1048.16Z"/><path class="cls-23" d="M1064.11,1066.21c.15-8-1.73-16.46-5.38-16.36a6.9,6.9,0,0,0-3.91,3.69,14.06,14.06,0,0,0-1.13,4.42A40.69,40.69,0,0,1,1064.11,1066.21Z"/><path class="cls-24" d="M1028,1062.88l-.38.14a13.35,13.35,0,0,0-2.52,1.38,30.22,30.22,0,0,0-7.31,7.72c-.21.23-.39.46-.58.69a16.32,16.32,0,0,0-1.38,1.91,9.33,9.33,0,0,1,2.18.91,4.69,4.69,0,0,1-.32-1.74c0-3.3,2.88-4.73,5.4-4.29,2.68-4.52,8.37-8.37,11.63-5.38a4.77,4.77,0,0,1,.66,4.72l1,.16a52.18,52.18,0,0,1,14.53,2,9.48,9.48,0,0,0,1.17-.2c3.24-.13,7.78,3.78,8.49,6.4a1.82,1.82,0,0,1,.5,1.07A17.61,17.61,0,0,1,1064,1081a3.93,3.93,0,0,1,1.43,2.1c3.07,5.92-2.39,11.65-21.08,10.43-9.32.49-21.73-3.15-23.71-10.76a18.29,18.29,0,0,1-.52,2.06v0a6,6,0,0,1-1.31,5.94,26.62,26.62,0,0,0,3.18,2.73q5.41.77,10.75,1.81a28.93,28.93,0,0,1,.74,3.71,36.29,36.29,0,0,0,4.64,1c9.64-3.66,20.24-1.11,30.31-3.1a19.59,19.59,0,0,0,3.44-6.92c2.18-8.22-1.58-17-7.72-23.73a40.69,40.69,0,0,0-10.42-8.25c-.4-.22-.81-.44-1.22-.64a14.52,14.52,0,0,1-1.59,2c-6.6,2.86-13.23,2.31-19.43,1.94a4.43,4.43,0,0,1-1-.78C1029.66,1061.22,1028.84,1062,1028,1062.88Z"/><path class="cls-24" d="M1020.15,1077.81a5,5,0,0,1,.36.89c0-.23.09-.45.15-.69A3.17,3.17,0,0,1,1020.15,1077.81Z"/><path class="cls-25" d="M1029.77,1046.42c-.11.86-.19,1.72-.25,2.59-.16,2.5-.12,5-.2,7.53h0a4.59,4.59,0,0,0,1.16,3.91,4.43,4.43,0,0,0,1,.78c6.2.37,12.83.92,19.43-1.94a14.52,14.52,0,0,0,1.59-2,13.48,13.48,0,0,0,1.94-4.2c.92-3.55.15-7.06-2.26-9.2-1.85-1.63-4.64-2.45-8.37-1.86-4.22-.25-11.69-2.35-13.57,2.16a6.3,6.3,0,0,0-.43,2.28Zm-.22,9.21,0,.12C1029.48,1055.86,1029.48,1055.86,1029.55,1055.63Zm0,.14-.19.8A3.72,3.72,0,0,1,1029.52,1055.77Z"/><path class="cls-26" d="M1020.81,1077.54a2.52,2.52,0,0,1-.39-.12c-5.15-4.58,5.28-8.58,8.11-11.43,4.39-.86,5.34.59,4.52,2.72.72,0,1.49.12,2.34.23a4.77,4.77,0,0,0-.66-4.72c-3.26-3-9,.86-11.63,5.38-2.52-.44-5.43,1-5.4,4.29a4.69,4.69,0,0,0,.32,1.74,5.38,5.38,0,0,1,2.13,2.18,3.17,3.17,0,0,0,.51.2C1020.7,1077.86,1020.76,1077.7,1020.81,1077.54Z"/><path class="cls-27" d="M1060.71,1078l.41.3a1.82,1.82,0,0,0-.5-1.07A2.65,2.65,0,0,1,1060.71,1078Z"/><path class="cls-28" d="M1044.3,1093.49c18.69,1.22,24.15-4.51,21.08-10.43a3.93,3.93,0,0,0-1.43-2.1,17.61,17.61,0,0,0-2.83-2.62l-.41-.3c-.08,1.2-1.36,1.91-4.61,1.32l-.28-.17a14.68,14.68,0,0,1-1.43.37c-2.34-.57-4.7-1.06-7.08-1.49l-.25,0c-2.2-.28-4.2-.63-6-1l-2.17.08a3.16,3.16,0,0,1-5.15-.14,13.37,13.37,0,0,1-6.06-2c-2.4,1.81-5,3-6.84,2.59,0,.16-.11.32-.15.47s-.1.46-.15.69a8.37,8.37,0,0,1,.08,4C1022.57,1090.34,1035,1094,1044.3,1093.49Z"/><path class="cls-28" d="M1051,1071.07a52.18,52.18,0,0,0-14.53-2,63.74,63.74,0,0,1,7.33,1.68A36.93,36.93,0,0,0,1051,1071.07Z"/><path class="cls-29" d="M1033.05,1068.71c-.75,1.92-2.94,4.38-5.4,6.24a13.37,13.37,0,0,0,6.06,2,2.92,2.92,0,0,1-.39-1.43c-.13-3.88,5.93-4,6-.15a2.75,2.75,0,0,1-.46,1.72l2.17-.08c1.83.37,3.83.72,6,1l.25,0c2.38.43,4.74.92,7.08,1.49a14.68,14.68,0,0,0,1.43-.37l.28.17c3.25.59,4.53-.12,4.61-1.32a2.65,2.65,0,0,0-.09-.77c-.71-2.62-5.25-6.53-8.49-6.4a9.48,9.48,0,0,1-1.17.2,36.93,36.93,0,0,1-7.2-.29,63.74,63.74,0,0,0-7.33-1.68l-1-.16C1034.54,1068.83,1033.77,1068.75,1033.05,1068.71Z"/><path class="cls-30" d="M1033.05,1068.71c.82-2.13-.13-3.58-4.52-2.72-2.83,2.85-13.26,6.85-8.11,11.43a2.52,2.52,0,0,0,.39.12c1.81.44,4.44-.78,6.84-2.59S1032.3,1070.63,1033.05,1068.71Z"/><path class="cls-30" d="M1039.32,1075.38c-.07-3.89-6.13-3.73-6,.15a2.92,2.92,0,0,0,.39,1.43,3.16,3.16,0,0,0,5.15.14A2.75,2.75,0,0,0,1039.32,1075.38Z"/><path class="cls-31" d="M1037.4,1114.6c-7.18,4.18-12.43,8.18-14.23,11.73,22.89-5.95,50.4,2.87,74.32,1.86,6.21-.13,29.35.41,40.33,3.93a18.26,18.26,0,0,1,10.25-.49c4.22-4.83,14.1-8.59,17.64-12.93l-.09.06c27.88-24,43.79-31.53,41.7-26.25,3.6-7.54-7.72-10.91-22.16-9.72a60.28,60.28,0,0,0-13.39-5,81.15,81.15,0,0,0-12-2.14c-2.18-7.69-34.42-8.91-41.22.5-1.76,1.78-6.22,4.19-12.32,7-1.38.65-2.84,1.31-4.38,2C1083.46,1093.38,1054.78,1104.5,1037.4,1114.6Zm132.19-15.81c-3.56-1.15-3.86-5.29-.53-6.9l-.09.09C1176.93,1086.25,1178.26,1102,1169.59,1098.79Zm12.26-3.88c-.12-4.21,7.78-4.29,7.81-.1S1181.88,1099.1,1181.85,1094.91Zm-59.61-3.48c-2,1.52-5.55,2.87-8,1.43C1106.93,1086.36,1127,1082.9,1122.24,1091.43Zm11.39-14.22c-.11-4.21,7.78-4.3,7.81-.1S1133.67,1081.4,1133.63,1077.21Zm15.76,10.39c.12,4.21-7.78,4.3-7.81.1S1149.36,1083.41,1149.39,1087.6Zm-.25,11.19c.12,4.22-7.77,4.3-7.8.11S1149.11,1094.6,1149.14,1098.79ZM1129.36,1123c-.12-4.21,7.78-4.3,7.81-.1S1129.39,1127.16,1129.36,1123Zm-48.1-20.1v0c16.39-5.34,16.8,7.46-.15,7.91C1075.64,1110,1077.86,1104.85,1081.26,1102.87Zm31.55,12c-3.76.93-7.67-3.52-4.48-6.61C1114.58,1102.94,1123.56,1115.92,1112.81,1114.85Zm-9.59-1.31c.12,4.21-7.78,4.29-7.81.1S1103.19,1109.34,1103.22,1113.54Zm27-12.19.1,0c-1.83,1.34-3.73,3.37-6.4,2C1113.58,1095.32,1141.11,1091.74,1130.26,1101.35ZM1112.32,1117l.81-.34.26.34h-1.07Zm21.31-1.52c-4.59-4.34,5.8-9.45,8.13-4.69C1146,1115.32,1136.68,1118.41,1133.63,1115.5Zm-17.65,7.07c-.12-4.22,7.78-4.3,7.81-.11S1116,1126.76,1116,1122.57Zm34.53-1c.12,4.21-7.78,4.29-7.81.1S1150.48,1117.39,1150.51,1121.59Zm8-30.1c-.12-4.21,7.77-4.3,7.8-.1S1158.52,1095.68,1158.49,1091.49Zm3.86-7.19c.12,4.22-7.77,4.3-7.8.1S1162.32,1080.11,1162.35,1084.3Zm-29-2.24c-.07,3.11-5.23,4.81-7.75,3.24C1118.75,1080.5,1132.77,1075.41,1133.33,1082.06Zm-31.71,17.09c-5.11-.6-3.92-6.37.11-7.37l-.07,0C1111.83,1088.26,1111.15,1099.57,1101.62,1099.15Zm-50.7,19.62c-1.63-4.81,10.81-9,14.52-5.66a13,13,0,0,1,1.41-.18c9.72,2.36-.43,10.41-6,8.53a8,8,0,0,1-2-1.44C1055.64,1120.84,1052.29,1120.71,1050.92,1118.77Zm29.3-2c7.71-.74,6.91,8-.06,7.86C1073.65,1124.72,1073.56,1116.41,1080.22,1116.81Zm11.09,7.06c-.12-4.22,7.77-4.3,7.8-.1S1091.34,1128.06,1091.31,1123.87Zm60.8-13.57c-.12-4.21,7.77-4.3,7.8-.1S1152.14,1114.49,1152.11,1110.3Zm7.67-4.39c-.12-4.22,7.77-4.3,7.8-.11S1159.81,1110.1,1159.78,1105.91Zm17.57-19.08c.12,4.21-7.78,4.29-7.81.1S1177.32,1082.63,1177.35,1086.83Z"/><path class="cls-31" d="M1153.62,1136.85a8.28,8.28,0,0,1,.18,1.62,2.54,2.54,0,0,0,1.76-1.66c2.26-2.39,4.61-4.72,7-7C1159.64,1132.48,1156.7,1135.26,1153.62,1136.85Z"/><path class="cls-32" d="M1165.62,1118.76l.09-.06c-3.54,4.34-13.42,8.1-17.64,12.93a18.26,18.26,0,0,0-10.25.49c-11-3.52-34.12-4.06-40.33-3.93-23.92,1-51.43-7.81-74.32-1.86-1.39.36-2.77.77-4.12,1.24-9.5,16.24,54,13.86,91.13,14.6,11.18.22,20,.73,23.68,2.11l.18-.08.45.41c5.66,2.58,18.06,1.57,19.29-5.53,0-.21,0-.42,0-.61a8.28,8.28,0,0,0-.18-1.62c3.08-1.59,6-4.37,9-7,2.75-2.52,5.49-5,8.29-6.24l0,0c23.6-16.31,35-27.17,36.49-31.07C1209.41,1087.23,1193.5,1094.72,1165.62,1118.76Z"/><path class="cls-33" d="M1058.88,1120a8,8,0,0,0,2,1.44c5.57,1.88,15.72-6.17,6-8.53a13,13,0,0,0-1.41.18c-3.71-3.32-16.15.85-14.52,5.66C1052.29,1120.71,1055.64,1120.84,1058.88,1120Z"/><path class="cls-33" d="M1080.22,1116.81c-6.66-.4-6.57,7.91-.06,7.86C1087.13,1124.85,1087.93,1116.07,1080.22,1116.81Z"/><path class="cls-33" d="M1091.31,1123.87c0,4.19,7.92,4.11,7.8-.1S1091.19,1119.65,1091.31,1123.87Z"/><path class="cls-33" d="M1081.25,1102.89v0c-3.4,2-5.62,7.16-.16,7.93C1098.05,1110.35,1097.64,1097.55,1081.25,1102.89Z"/><path class="cls-33" d="M1101.66,1091.82l.07,0c-4,1-5.22,6.77-.11,7.37C1111.15,1099.57,1111.83,1088.26,1101.66,1091.82Z"/><path class="cls-33" d="M1114.26,1092.86c2.43,1.44,5.93.09,8-1.43C1127,1082.9,1106.93,1086.36,1114.26,1092.86Z"/><path class="cls-33" d="M1125.58,1085.3c2.52,1.57,7.68-.13,7.75-3.24C1132.77,1075.41,1118.75,1080.5,1125.58,1085.3Z"/><path class="cls-33" d="M1141.44,1077.11c0-4.2-7.92-4.11-7.81.1S1141.56,1081.32,1141.44,1077.11Z"/><path class="cls-33" d="M1112.81,1114.85c10.75,1.07,1.77-11.91-4.48-6.61C1105.14,1111.33,1109.05,1115.78,1112.81,1114.85Z"/><path class="cls-33" d="M1124,1103.35c2.67,1.34,4.57-.69,6.4-2l-.1,0C1141.11,1091.74,1113.58,1095.32,1124,1103.35Z"/><path class="cls-33" d="M1095.41,1113.64c0,4.19,7.93,4.11,7.81-.1S1095.29,1109.42,1095.41,1113.64Z"/><path class="cls-33" d="M1133.63,1115.5c3,2.91,12.34-.18,8.13-4.69C1139.43,1106.05,1129,1111.16,1133.63,1115.5Z"/><path class="cls-33" d="M1141.34,1098.9c0,4.19,7.92,4.11,7.8-.11S1141.22,1094.68,1141.34,1098.9Z"/><path class="cls-33" d="M1149.39,1087.6c0-4.19-7.93-4.11-7.81.1S1149.51,1091.81,1149.39,1087.6Z"/><path class="cls-33" d="M1158.49,1091.49c0,4.19,7.92,4.11,7.8-.1S1158.37,1087.28,1158.49,1091.49Z"/><path class="cls-33" d="M1154.55,1084.4c0,4.2,7.92,4.12,7.8-.1S1154.43,1080.19,1154.55,1084.4Z"/><path class="cls-33" d="M1152.11,1110.3c0,4.19,7.92,4.11,7.8-.1S1152,1106.09,1152.11,1110.3Z"/><path class="cls-33" d="M1142.7,1121.69c0,4.19,7.93,4.11,7.81-.1S1142.58,1117.48,1142.7,1121.69Z"/><path class="cls-33" d="M1137.17,1122.87c0-4.2-7.93-4.11-7.81.1S1137.28,1127.08,1137.17,1122.87Z"/><path class="cls-33" d="M1169.59,1098.79c8.67,3.18,7.34-12.54-.62-6.81l.09-.09C1165.73,1093.5,1166,1097.64,1169.59,1098.79Z"/><path class="cls-33" d="M1159.78,1105.91c0,4.19,7.92,4.11,7.8-.11S1159.66,1101.69,1159.78,1105.91Z"/><path class="cls-33" d="M1189.66,1094.81c0-4.19-7.93-4.11-7.81.1S1189.78,1099,1189.66,1094.81Z"/><path class="cls-33" d="M1169.54,1086.93c0,4.19,7.93,4.11,7.81-.1S1169.42,1082.72,1169.54,1086.93Z"/><path class="cls-33" d="M1123.79,1122.46c0-4.19-7.93-4.11-7.81.11S1123.91,1126.68,1123.79,1122.46Z"/><path class="cls-34" d="M1287.93,839.5c-16.65-1.14-42.2,2.9-41.53-7.51-.6,2-1.13,4.08-1.59,6.18-4,18.41-1.64,39.08,16.48,43.25,3.85,1,7.62,2.32,11.46,3.38,24.1,7.85,31.66-3,30.11-22.58C1295.88,855.26,1289.93,846.86,1287.93,839.5Zm-23.15,23.92.83,1.27C1264.8,864.83,1264.92,864,1264.78,863.42Z"/><path class="cls-34" d="M1264.78,863.42c.26.44.54.86,0,0Z"/><path class="cls-34" d="M1255.22,814.6c-.42.19-.85.37-1.27.58-.45.68-.89,1.4-1.32,2.14A12.42,12.42,0,0,1,1255.22,814.6Z"/><path class="cls-34" d="M1264.73,813c3.64,1,9.42.93,15.74.8-6.1-1.08-12.17-1.84-17.88-1.1a17.3,17.3,0,0,1,2.24.3Z"/><path class="cls-34" d="M1248.09,827l-.15.4v0Z"/><path class="cls-34" d="M1273.22,825.76c-1.85-.3.53.1,1-.21C1265.47,825.44,1263.12,825.22,1273.22,825.76Z"/><path class="cls-35" d="M1223.28,834.38c-13-4.31-34.83-1.71-39.43-9.7-.1.82-.18,1.66-.25,2.5-.88,10.08-.25,21.3-3.27,29.37-9.47,22.42,16.69,26.28,33.22,27,25.19,2.71,10.87-28.63,14.85-47.74A7.38,7.38,0,0,1,1223.28,834.38Zm-8.7,36.7c.91-1.29,1.29-1.68,1.42.16C1215.5,871.17,1215,871.17,1214.58,871.08Z"/><path class="cls-35" d="M1229.26,820.35c-2.5-3.43-6.46-5.67-11-7.28A56.59,56.59,0,0,1,1229.26,820.35Z"/><path class="cls-35" d="M1192.33,806.55c-.28.19-.53.41-.8.61.63-.08,1.26-.14,1.9-.19C1193.05,806.84,1192.68,806.7,1192.33,806.55Z"/><path class="cls-36" d="M1333.58,821.44c2.88,6.09,1.28,15.74-3.77,20-.79,2.13-2.49,3.58-6.08,3.59a192.29,192.29,0,0,1-19.29-1.27,9.2,9.2,0,0,1-2.2-.32c-5.48-.86-9-2.06-10.67-3.63-1.15-.16-2.37-.27-3.64-.36,2,7.36,8,15.76,14.93,22.72,7.68,7.64,16.6,13.54,22.94,14.39q1-.18,1.86-.39c6.53,6.45,45.17-13.85,36.2-21.92-15.88-4.57-16.66-26.08-24.9-36.12,1.62-2.64.43-5.4-5.19-8.07a13.39,13.39,0,0,1-1.86,1c-.49.23-1,.44-1.57.65C1333.28,813.19,1334.71,816.87,1333.58,821.44Z"/><path class="cls-36" d="M1317.47,831.53l0,0h0l-.74.22a3.64,3.64,0,0,1,.72.05Z"/><path class="cls-37" d="M1189,807.63l.17,0a.86.86,0,0,0,.07-.1Z"/><path class="cls-37" d="M1234,826.64l.06.15A12,12,0,0,0,1233,824c-.36-.4-.75-.81-1.14-1.21s-.71-.72-1.09-1.07l-.22-.21c-.41-.37-.82-.74-1.25-1.11a56.59,56.59,0,0,0-11-7.28c-7.93-4.07-17-6.63-24.85-6.1-.64,0-1.27.11-1.9.19-.79.11-1.56.26-2.32.43a41.72,41.72,0,0,0-5.07,8.63c-1.5,3.7-1.46,6.42-.29,8.46,4.6,8,26.45,5.39,39.43,9.7a7.38,7.38,0,0,0,5.12,1.41,7.74,7.74,0,0,0,2.19-.55A6.16,6.16,0,0,0,1234,826.64Z"/><path class="cls-37" d="M1232.57,823.28c.14.22.27.45.39.67l0,0Z"/><path class="cls-38" d="M1249.54,823.26c-.5,1.21-1,2.47-1.45,3.72l-.14.38v0a11.41,11.41,0,0,0-1.54,4.61c-.67,10.41,24.88,6.37,41.53,7.51,1.27.09,2.49.2,3.64.36-1.45-1.34-1.6-2.94-.57-4.83a8.19,8.19,0,0,1-.25-1.18c0,.27.08.54.11.8-.4-2.27-1-4.52-1.24-6.82h0v0c-.81-9,8.52-10.82,17.4-12.12-6.62-2.52-17.18-2.16-26.55-2-6.32.13-12.1.18-15.74-.8h.1a17.3,17.3,0,0,0-2.24-.3,10.47,10.47,0,0,0-7.37,2,12.42,12.42,0,0,0-2.59,2.72,27,27,0,0,0-2.84,5.34l0,.08Zm23.68,2.5c-10.1-.54-7.75-.32,1-.21C1273.75,825.86,1271.37,825.46,1273.22,825.76Z"/><path class="cls-38" d="M1302.24,843.49a9.2,9.2,0,0,0,2.2.32C1303.68,843.71,1303,843.6,1302.24,843.49Z"/><path class="cls-39" d="M1289.62,827.83c.28,2.3.84,4.55,1.24,6.82,0-.26-.07-.53-.11-.8A8.19,8.19,0,0,0,1291,835c-1,1.89-.88,3.49.57,4.83,1.7,1.57,5.19,2.77,10.67,3.63.71.11,1.44.22,2.2.32a192.29,192.29,0,0,0,19.29,1.27c3.59,0,5.29-1.46,6.08-3.59,5-4.31,6.65-14,3.77-20,1.13-4.57-.3-8.25-3.24-9.66a6.1,6.1,0,0,0-2-.57c-2.32-.26-5.18.59-8.3,2.93-.51-.24-1-.46-1.65-.68-2.88,1.12-7,1.62-11.33,2.25C1298.14,817,1288.81,818.85,1289.62,827.83Zm27.1,3.94.74-.22h0l0,0,0,.29A3.64,3.64,0,0,0,1316.72,831.77Z"/><path class="cls-39" d="M1289.62,827.83h0v0Z"/><path class="cls-40" d="M1215.14,508.67c0,.17.09.32.13.48q4.24,15.79,35.93,15c4.85.94,8.69.3,11.76-1.41,3.65-2,6.21-5.54,8.08-9.68a66.77,66.77,0,0,0,4.19-14.56c7.51-7.45,31-14.94,15.56-27.31-22.34-27.23-50.16-26.36-67.3,6.57q-7.58,13.44-8.7,23A22.75,22.75,0,0,0,1215.14,508.67Z"/><path class="cls-41" d="M900.82,1106.19c-.08-1.39-2.58-.68-3.43-.74l-12,.65C890.59,1106.5,895.63,1105.86,900.82,1106.19Z"/><path class="cls-41" d="M883.93,1134.5l-.18,0c4.66.22,9.35.4,14,.52h-.12c17.54.24,35,1.9,52.53.65,2-.18,1.78-.25,1.41,1.57,1.51,6.3,6.74-.58,10-1.47,1.87-1.4,4.79.85,6-2,2.92-1.8,1.79,2.42,4.81,2.32,6.28-5.86,15.69-8.17,23.56-11.85,10.1-5.72,25.48-6.32,33.11-12.66,3.37-2.8,5.21-6.73,4.43-12.71a28.93,28.93,0,0,0-.74-3.71q-5.33-1-10.75-1.81-2.87-.4-5.76-.74c-7,4-21.18,4.64-27.5,9.28-7,3.38-15.48,5.33-21.19,10.66-2.67.09-1.7-3.65-4.27-2.06-1,2.5-3.66.48-5.3,1.72-2.95.79-7.55,6.92-8.92,1.31.33-1.63.55-1.55-1.23-1.38-15.51,1.1-31.17-.38-46.63-.58l.1,0c-4.09-.07-8.25-.27-12.38-.45l.15,0c-20.42-1.36-41.15-.57-61.69-1.41a47.89,47.89,0,0,0-8.56,1,39.48,39.48,0,0,1-14.95,24.08C829.26,1130.13,857.67,1134.66,883.93,1134.5Zm68.41-5.71c0,.16-.21,0-.32.09C952.11,1128.88,952.35,1128.7,952.34,1128.79Zm56.09-27.36.21,0C1008.07,1101.78,1007.47,1101.49,1008.43,1101.43Zm-5.12,8.55c8-5.25,41.88-17,19.22-.93-16.81,6.32-38,18.6-52.19,20.14,1.82-12.28,23.65-13.28,33.31-19.33Zm-109.95,18.1c1,.08,3.8-.76,3.86.86-5.85-.39-11.52.38-17.34-.12Zm-39-8.67a6.53,6.53,0,0,1,1.71-.09c-.51,0-1.6.14-2.12.19Z"/><path class="cls-41" d="M862.79,1097.75l-.37.09c.38,0,1.3-.15,1.67-.17A4.34,4.34,0,0,0,862.79,1097.75Z"/><path class="cls-41" d="M819.36,1105.26s0,.09,0,.13l.29-.08C819.49,1105.25,819.41,1105.2,819.36,1105.26Z"/><path class="cls-42" d="M875.13,1081.83l-.27.08a9.65,9.65,0,0,1,1-.15A2.2,2.2,0,0,0,875.13,1081.83Z"/><path class="cls-42" d="M843.3,1088.94c-.19-.09-.19-.13-.24.1A.47.47,0,0,1,843.3,1088.94Z"/><path class="cls-42" d="M903.15,1089.76c0-1.24-1.76-.65-2.5-.67l-8.83.6C895.62,1090,899.33,1089.44,903.15,1089.76Z"/><path class="cls-42" d="M827.33,1109.72c20.54.84,41.27,0,61.69,1.41l-.15,0c4.13.18,8.29.38,12.38.45l-.1,0c15.46.2,31.12,1.68,46.63.58,1.78-.17,1.56-.25,1.23,1.38,1.37,5.61,6-.52,8.92-1.31,1.64-1.24,4.27.78,5.3-1.72,2.57-1.59,1.6,2.15,4.27,2.06,5.71-5.33,14.18-7.28,21.19-10.66,6.32-4.64,20.46-5.28,27.5-9.28a10.21,10.21,0,0,0,2.58-2,6,6,0,0,0,1.31-5.94v0a18.29,18.29,0,0,0,.52-2.06,8.37,8.37,0,0,0-.08-4,5,5,0,0,0-.36-.89,5.38,5.38,0,0,0-2.13-2.18,9.33,9.33,0,0,0-2.18-.91,13,13,0,0,0-1.46-.34c-.85-.16-1.75-.27-2.68-.35-3-.22-6.2-.1-9.1-.12-3-.27-5.84-.5-8.72-.7l-1.62-.11h0c-3.11,5.72-15.21,7.22-24.17,12.64-5.19,3.18-11.79,5.32-15.71,10.1-2.11.06-1.06-3.41-3.15-1.95-.68,2.3-2.66.5-3.91,1.63-2.32,1-5.64,6.39-6.57,1.23,1.08-2.82-4.56-.48-6.48-1-9.62.38-19.15-.74-28.82-.85l.07-.05c-3,0-6.09-.24-9.13-.4l.11,0c-17.45-1.86-40.2,0-55.21-1.19a30.28,30.28,0,0,1,0-10.11,7.22,7.22,0,0,0-1.18.59c-4.61,6.4-15.52,5.27-20.92,8.45a34.12,34.12,0,0,1,2.16,13.11c0-.06.13,0,.28,0l-.29.08a36.64,36.64,0,0,1-.58,5.34A47.89,47.89,0,0,1,827.33,1109.72Zm172.32-27.94c-.52.32-.89,0-.12,0Zm14.33,2.64c9.35,4.24-50.22,26.7-47.26,20.3C964,1100.48,1028.05,1067.64,1014,1084.42Zm-116.59,21c.85.06,3.35-.65,3.43.74-5.19-.33-10.23.31-15.39-.09Zm-35-7.61.37-.09a4.34,4.34,0,0,1,1.3-.08C863.72,1097.69,862.8,1097.79,862.42,1097.84Zm-41.93,2.65v-.17C820.68,1100.24,820.66,1100.49,820.49,1100.49Z"/><path class="cls-43" d="M839.26,1093.22c15,1.17,37.76-.67,55.21,1.19l-.11,0c3,.16,6.1.37,9.13.4l-.07.05c9.67.11,19.2,1.23,28.82.85,1.92.51,7.56-1.83,6.48,1,.93,5.16,4.25-.25,6.57-1.23,1.25-1.13,3.23.67,3.91-1.63,2.09-1.46,1,2,3.15,1.95,3.92-4.78,10.52-6.92,15.71-10.1,9-5.42,21.06-6.92,24.17-12.64l0,0a6.49,6.49,0,0,0,.43-1c.82-2.56,0-5.91-3.24-10.6a6.83,6.83,0,0,0-4.38-2,27,27,0,0,0-4.63-.15c-1.12,0-2.24.08-3.33.1a15.13,15.13,0,0,1-4.68-.49c-2.29-.33-4.51-.55-6.71-.72-4.43-.35-8.75-.45-13.08-.53-3.93-.07-7.88-.13-12-.37l-1.22.07c-11.06.59-25.51-3.16-35.56-.73l-.12,0c-7.82,1.38-16.17,3.61-24.55,5.8-5.31,1.39-10.64,2.76-15.86,3.9l.08-.07c-13.8,3.62-22.2,7.21-24.14,16.87A30.28,30.28,0,0,0,839.26,1093.22Zm35.87-11.39a2.2,2.2,0,0,1,.77-.07,9.65,9.65,0,0,0-1,.15Zm25.52,7.26c.74,0,2.51-.57,2.5.67-3.82-.32-7.53.27-11.33-.07Zm75-22.23.37,0h0C975.84,1066.86,975.67,1067.08,975.6,1066.86Zm-132.3,22.08a.47.47,0,0,0-.24.1C843.11,1088.81,843.11,1088.85,843.3,1088.94Zm145.37-19.44c5.73-.39-14.74,14.51-27.6,18.47h0c-2.7.91-6.22,5.17-8.61,1.72a4.62,4.62,0,0,1,.91-3.46,2.53,2.53,0,0,1-.18-.27c3.5-9.34,17.58-11,25.17-16.85l-.09,0,.09,0h0l.23-.12-.19.1c.55-.31,1.13-.56,1.69-.85l-.06,0,.31-.16-.09.05,1.61-.81C988.25,1061.43,991.14,1065.77,988.67,1069.5Z"/><path class="cls-44" d="M978.29,1069.14l.09,0h0Z"/><path class="cls-44" d="M981.88,1067.34l-1.61.81.09-.05-.31.16.06,0c-.56.29-1.14.54-1.69.85l.19-.1-.23.12c-7.59,5.9-21.67,7.51-25.17,16.85a2.53,2.53,0,0,0,.18.27,4.62,4.62,0,0,0-.91,3.46c2.39,3.45,5.91-.81,8.61-1.72h0c12.86-4,33.33-18.86,27.6-18.47C991.14,1065.77,988.25,1061.43,981.88,1067.34Z"/><path class="cls-44" d="M966.72,1104.72c-3,6.4,56.61-16.06,47.26-20.3C1028.05,1067.64,964,1100.48,966.72,1104.72Z"/><path class="cls-44" d="M970.34,1129.19c14.2-1.54,35.38-13.82,52.19-20.14,22.66-16.12-11.25-4.32-19.22.93l.34-.12C994,1115.91,972.16,1116.91,970.34,1129.19Z"/><path class="cls-45" d="M718.19,1052.26a6.09,6.09,0,0,1,4.48-1.82c-16.62-7.24-17.44-10.88-11.79-9.87l-.09-.06c-12.79-2.07-2.51,7.93,3.85,11.64A19.12,19.12,0,0,1,718.19,1052.26Z"/><path class="cls-45" d="M726.47,1080.31c0-.31,0-.63-.05-.94l0-.38v0a12.93,12.93,0,0,0-4.57-8.78,37.34,37.34,0,0,1,3.65,18A29.85,29.85,0,0,0,726.47,1080.31Z"/><path class="cls-45" d="M733.66,1072.56a24.64,24.64,0,0,1,4.19,15.2c5.68,6.12-5.72,21.21-.71,30.23-1.75,11,37.78,16.41,14.22,20.75l-.56.13c7.13,1.17,15.79,2.13,26.27,2.87a35.47,35.47,0,0,0,26.75-6.93,39.48,39.48,0,0,0,14.95-24.08,36.64,36.64,0,0,0,.58-5.34s0-.09,0-.13a34.12,34.12,0,0,0-2.16-13.11,34.7,34.7,0,0,0-5.19-9.22,30.64,30.64,0,0,0-7.21-7.87,39.4,39.4,0,0,0-12.38-6.45c-1-.32-2.06-.61-3.11-.86,4.68,1.59,6.07,4.13-4,6.44a32.49,32.49,0,0,0-7.66-1c-.1.16-.21.33-.33.49a17.88,17.88,0,0,0-5.46,2.3c-2.65,5.8-9.81,13.88-12.45,14.63l-.27-.06a7.52,7.52,0,0,1-.29,1.79c3,1.34,4.78,6.91,4.61,10.71a22,22,0,0,1,1,4.6c2,5.07,8.77,21.57-2.48,15.2-12.19-7-13.4-34.39-10.29-35.74l-.06-.25c-.21-.89-.44-1.77-.69-2.63a3.36,3.36,0,0,1-.28-.94,52.45,52.45,0,0,0-9.16-17.09,3,3,0,0,1-.72.31,1.87,1.87,0,0,1-3.07-.12,4.91,4.91,0,0,1-.54-1.27h0l0-.07s0,0,0,.06a1.71,1.71,0,0,0,0-.45c-.8-.81-1.57-1.67-2.35-2.51l0,0-.17-.18,0,0-.74-.76,0,0c-.64-.66-1.26-1.33-1.9-2l.09.09h0l0,0c-2.11-4.73-7.83-3.57-11.51-3.91l-.46.2c-.18.54-1,1.08-2.64,1.54h-.1a36.83,36.83,0,0,0-4.19.27l.13,0-.65.08h0l-1,.11H712c-7.29.77-15.66.39-20.68,5.25-2-2.52-1.6-4.26.1-5.5a7.13,7.13,0,0,1,2-1.63c-4.51,1.86-6.41,4.67-1.41,8.59,6.78-3.2,13.49-4.26,19.66-2.36C710.46,1056.75,732.35,1064.77,733.66,1072.56Zm48.55,26c-6.54-7.32,11.37-13.44,9.41-3.11,3.66,3,5.19,7.32-1.63,6.49a3,3,0,0,1-2,.45c-.61-.27-1.18-.55-1.7-.82A9.2,9.2,0,0,1,782.21,1098.54Zm25.29-1.43a1.21,1.21,0,0,0,0-.18.4.4,0,0,0,.07.18l-.06-.1.37,1.09C807.79,1097.76,807.65,1097.43,807.5,1097.11Z"/><path class="cls-45" d="M709.28,1053l.71-.17c-.56,0-1.12,0-1.7.08A2.9,2.9,0,0,1,709.28,1053Z"/><path class="cls-45" d="M708.18,1053c-1.24.08-2.53.19-3.83.35,1-.07,2-.09,3.06-.1A2.32,2.32,0,0,1,708.18,1053Z"/><path class="cls-45" d="M737.8,1136.07a40.31,40.31,0,0,1-8.87-5.5,8.18,8.18,0,0,1-2.55-.35,38,38,0,0,1-5.5-4.64C723.07,1129.78,728.05,1133.29,737.8,1136.07Z"/><path class="cls-46" d="M788,1102.37a3,3,0,0,0,2-.45c6.82.83,5.29-3.44,1.63-6.49,2-10.33-16-4.21-9.41,3.11a9.2,9.2,0,0,0,4.12,3C786.85,1101.82,787.42,1102.1,788,1102.37Z"/><path class="cls-46" d="M715.32,1066.53l-.11-.1-.16-.07Z"/><path class="cls-46" d="M718.3,1121.13a14.43,14.43,0,0,0,1.13,3.08l-.22-.18,1.67,1.55a38,38,0,0,0,5.5,4.64,8.18,8.18,0,0,0,2.55.35,40.31,40.31,0,0,0,8.87,5.5c4.76,2.19,9.72,3.43,13,2.8l.56-.13c23.56-4.34-16-9.72-14.22-20.75-5-9,6.39-24.11.71-30.23a24.64,24.64,0,0,0-4.19-15.2c-1.31-7.79-23.2-15.81-21.91-10.56.25,1,1.3,2.43,3.46,4.43a21.7,21.7,0,0,1,6.61,3.73,12.93,12.93,0,0,1,4.57,8.78v0l0,.38c0,.31,0,.63.05.94a29.85,29.85,0,0,1-1,7.84c-.62,2.49-1.45,5.07-2.34,7.68-1.2,3.51-2.51,7.07-3.53,10.56C718.08,1111.62,717.2,1116.67,718.3,1121.13Z"/><path class="cls-46" d="M756.62,1089.67l-.71.5c-1.82-.53-2.83-2.46-3.73-4a6.28,6.28,0,0,0-.27.59l-.12.3,0,0c-3.11,1.35-1.9,28.78,10.29,35.74,11.25,6.37,4.47-10.13,2.48-15.2a22,22,0,0,0-1-4.6c.17-3.8-1.58-9.37-4.61-10.71a7.52,7.52,0,0,0,.29-1.79A8.8,8.8,0,0,1,756.62,1089.67Z"/><path class="cls-47" d="M717.75,1057.23h0Z"/><path class="cls-48" d="M732.24,1059.38h0"/><path class="cls-47" d="M752.11,1086l.07.12c.9,1.55,1.91,3.48,3.73,4l.71-.5a8.8,8.8,0,0,0,2.56.84l.27.06c2.64-.75,9.8-8.83,12.45-14.63a17.88,17.88,0,0,1,5.46-2.3c.12-.16.23-.33.33-.49a32.49,32.49,0,0,1,7.66,1c10-2.31,8.64-4.85,4-6.44-3.94-1.34-10.23-2-13.94-1.25a6.53,6.53,0,0,0-2,.25,12.21,12.21,0,0,0-5.86.76,11,11,0,0,0-5.73,3c-3.92,2.26-8.44,6.72-9.62,10.64-.15.1-.29.22-.45.32l.05,0a1.8,1.8,0,0,0-1,1.86,3.36,3.36,0,0,0,.28.94A13.52,13.52,0,0,0,752.11,1086Z"/><path class="cls-47" d="M691.45,1057.4c-1.7,1.24-2.11,3-.1,5.5,5-4.86,13.39-4.48,20.68-5.25h-.12l1-.11h0l.65-.08-.13,0a36.83,36.83,0,0,1,4.19-.27h.1c1.68-.46,2.46-1,2.64-1.54l.46-.2c3.68.34,9.4-.82,11.51,3.91l0,0-.09-.09c.64.66,1.26,1.33,1.9,2l0,0,.74.76,0,0,.17.18,0,0c.78.84,1.55,1.7,2.35,2.51a1.71,1.71,0,0,1,0,.45,4.91,4.91,0,0,0,.54,1.27,1.87,1.87,0,0,0,3.07.12,3,3,0,0,0,.72-.31c2.06-1.28,0-4.85-3.66-8.28a35.82,35.82,0,0,0-8.58-8.78h0l-.12-.07,0,0-.14-.08h0c-.56-.1-1-.16-1.49-.2-6.6-4.91-13.05-7.55-16.73-8.21-5.65-1-4.83,2.63,11.79,9.87a6.09,6.09,0,0,0-4.48,1.82,19.12,19.12,0,0,0-3.55-.11,26.54,26.54,0,0,0-4.65.72l-.71.17a2.9,2.9,0,0,0-1-.09h-.11a2.32,2.32,0,0,0-.77.25c-1,0-2,0-3.06.1-4.1.24-8.19,1-10.85,2.47A7.13,7.13,0,0,0,691.45,1057.4Z"/><path class="cls-47" d="M737.24,1065.09h0s0,0,0-.06Z"/></g></g></svg>