<svg xmlns="http://www.w3.org/2000/svg" viewBox="0 0 400 400" width="400" height="400"><defs></defs><g>
<g>
	<g>
		<path d="M110.81981,146.974677C110.81981,116.922093 127.53548,92.510354 148.113656,92.510354 L 259.995193,92.510354 C280.57337,92.510354 297.289039,116.922093 297.289039,146.974677 L 297.289039,310.367645 C297.289039,340.420229 280.57337,364.831967 259.995193,364.831967 L 148.113656,364.831967 C127.53548,364.831967 110.81981,340.420229 110.81981,310.367645 L 110.81981,146.974677 Z" transform="matrix(1,0,0,1,0,0)" fill="#fbb2b2" stroke="#ffffff" stroke-width="2" stroke-linecap="round" stroke-linejoin="bevel"/>
		<path d="" transform="" fill="none" stroke="#ff8723" stroke-width="27.799999999999997"/>
		<path d="" transform="" fill="none" stroke="#333333" stroke-width="27.799999999999997"/>
		<path d="" transform="" fill="none" stroke="#453057" stroke-width="27.799999999999997"/>
		<path d="" transform="" fill="none" stroke="#453057" stroke-width="27.799999999999997"/>
		<path d="" transform="" fill="none" stroke="#453057" stroke-width="27.799999999999997"/>
		<path d="" transform="" fill="none" stroke="#453057" stroke-width="27.799999999999997"/>
		<path d="M-175.722656,245.59375L -175.722656,245.59375 L -175.722656,245.59375 L -175.722656,245.59375 L -175.722656,245.59375 Z" transform="" fill="#000000" stroke="#000000" stroke-width="2"/>
		<path d="" transform="" fill="none" stroke="#f9d0d0" stroke-width="12.800000000000004"/>
		<path d="M194.074219,98.199219L 201.453125,96.648438 L 206.058594,95.699219 L 217.230469,94.148438 L 218.449219,94.148438 L 218.855469,94.148438 L 220.480469,94.148438 L 221.699219,94.148438 L 220.066406,94.148438 L 217.453125,95.75 L 213.859375,96.945312 L 197.644531,100.609375 L 184.25,103.871094 L 181.636719,104.875 L 179.59375,105.6875 L 179.183594,105.6875 L 178.773438,106.09375 L 178.363281,106.09375 " transform="matrix(0.759200367,0,0,0.759200367,48.136201507,92.510354272)" fill="none" stroke="#242424" stroke-width="12.800000000000004"/>
		<path d="" transform="" fill="none" stroke="#ffffff" stroke-width="21.200000000000003"/>
		<path d="M189.003906,129.621094L 184.046875,146.796875 L 180.777344,156.386719 L 174.566406,186.183594 L 171.71875,197.5625 L 169.566406,204.941406 L 168.964844,207.546875 L 168.363281,210.152344 L 167.953125,211.777344 L 166.941406,215.195312 L 166.53125,217.632812 L 166.121094,218.851562 L 166.121094,219.257812 L 166.121094,219.664062 L 165.710938,220.070312 L 165.300781,220.882812 L 165.300781,222.101562 L 164.890625,224.132812 L 164.480469,225.351562 L 164.070312,226.570312 L 163.660156,228.601562 L 163.660156,229.820312 L 163.660156,230.226562 L 163.660156,231.039062 L 163.660156,232.664062 L 163.660156,233.882812 L 163.660156,234.695312 L 163.660156,235.101562 L 163.660156,235.507812 L 163.660156,236.320312 L 164.066406,237.539062 L 164.066406,239.164062 L 164.066406,239.976562 L 164.066406,240.789062 L 164.066406,241.195312 L 164.066406,242.007812 L 164.066406,242.414062 L 162.835938,238.71875 L 163.242188,240.75 L 164.054688,242.375 L 164.867188,244 L 166.085938,245.21875 L 168.117188,247.25 L 168.523438,247.65625 L 170.148438,248.875 L 170.960938,249.6875 L 172.585938,250.09375 L 174.210938,250.90625 L 175.835938,251.3125 L 176.242188,251.3125 L 177.460938,251.71875 L 181.046875,252.914062 L 188.632812,254.804688 L 193.03125,255.402344 L 195.0625,255.808594 L 195.875,255.808594 L 199.292969,256.8125 L 202.878906,257.410156 L 205.484375,257.410156 L 205.890625,257.410156 L 206.296875,257.410156 L 208.328125,257.816406 L 208.734375,257.816406 L 209.546875,258.222656 L 209.953125,258.222656 L 210.359375,258.222656 L 212.796875,256.992188 L 214.421875,256.171875 L 216.046875,255.351562 L 216.859375,254.941406 L 218.484375,254.121094 L 219.296875,253.300781 L 220.515625,252.480469 L 222.546875,250.4375 L 223.359375,250.027344 L 224.171875,248.796875 L 225.390625,247.566406 L 226.609375,246.335938 L 227.421875,245.519531 L 228.640625,244.289062 L 229.453125,243.46875 L 229.859375,243.058594 L 229.859375,242.648438 L 230.671875,242.238281 L 231.078125,241.828125 L 231.484375,241.828125 L 231.484375,241.417969 L 232.296875,241.007812 L 232.703125,241.007812 L 232.703125,240.597656 L 232.703125,240.1875 L 232.703125,238.550781 L 232.703125,235.691406 L 231.5,230.300781 L 228.441406,220.703125 L 226.332031,211.105469 L 222.882812,201.714844 L 203.316406,138.230469 " transform="matrix(0.952978746,0,0,0.952978746,16.522805064,36.717072253)" fill="none" stroke="#c75f5f" stroke-width="26.4"/>
		<path d="M195.59375,175.195312L 193.273438,188.582031 L 189.371094,209.980469 L 187.050781,223.367188 L 184.550781,232.746094 L 181.988281,240.9375 L 181.578125,243.375 L 180.757812,245 L 180.757812,245.8125 L 180.347656,246.21875 L 180.347656,246.625 L 180.753906,246.625 L 186.777344,246.625 L 189.214844,246.214844 L 191.820312,246.214844 L 193.445312,246.214844 L 195.476562,246.214844 L 196.289062,246.214844 L 198.726562,244.984375 L 199.539062,244.984375 L 200.351562,244.164062 L 200.757812,242.933594 L 201.570312,241.296875 L 201.976562,240.070312 L 202.980469,237.046875 L 203.578125,233.617188 L 204.175781,230.1875 L 204.582031,222.347656 L 204.988281,217.734375 L 204.988281,208.339844 L 204.988281,200.949219 L 202.878906,189.554688 L 202.878906,185.960938 L 202.058594,180.734375 L 201.648438,178.28125 L 201.238281,177.054688 L 201.238281,173.625 L 200.828125,171.582031 L 200.417969,169.949219 L 200.007812,166.105469 L 200.007812,164.875 L 199.597656,164.464844 L 199.597656,164.054688 L 198.777344,163.234375 L 198.367188,163.234375 L 197.765625,165.027344 L 196.753906,168.445312 L 196.34375,170.070312 L 195.933594,171.695312 L 195.933594,173.726562 L 195.933594,175.757812 L 195.933594,176.976562 L 196.339844,179.007812 L 196.339844,181.613281 L 198.886719,189.804688 L 200.679688,195.183594 L 203.417969,202.5625 L 204.960938,208.148438 L 206.5625,211.566406 L 207.757812,215.152344 L 208.761719,219.550781 L 209.765625,222.15625 L 210.171875,225.574219 L 211.582031,228.992188 L 211.988281,231.597656 L 212.585938,234.203125 L 212.992188,235.421875 L 213.398438,236.234375 L 213.804688,237.453125 L 214.617188,239.078125 L 215.023438,239.890625 L 215.429688,241.109375 L 215.835938,241.921875 L 216.242188,242.734375 L 216.648438,241.917969 L 217.59375,233.710938 L 217.59375,229.097656 L 217.59375,219.707031 L 216.433594,204.308594 L 214.671875,196.710938 L 213.511719,187.113281 L 211.011719,175.925781 L 209.808594,171.515625 L 209.808594,168.902344 L 208.988281,166.453125 L 208.386719,163.839844 L 207.375,161.222656 L 206.964844,158.609375 L 206.554688,155.585938 L 205.734375,153.136719 L 205.324219,151.503906 L 204.914062,149.871094 L 204.09375,147.828125 L 203.273438,145.78125 L 202.863281,144.550781 L 202.863281,143.324219 L 202.042969,141.6875 L 201.632812,140.867188 L 201.632812,140.050781 L 201.222656,138.820312 L 200.402344,137.183594 L 200.402344,136.363281 L 199.992188,135.542969 L 199.582031,134.722656 L 199.171875,133.492188 L 198.761719,131.449219 L 198.351562,129.8125 L 197.53125,127.363281 L 197.121094,125.730469 L 196.710938,123.6875 L 196.300781,122.460938 L 196.300781,121.230469 L 195.890625,120.410156 L 195.480469,119.179688 L 195.480469,118.359375 L 195.480469,117.949219 L 195.070312,117.128906 L 194.660156,116.308594 L 194.660156,115.898438 L 194.660156,116.304688 L 194.660156,116.710938 L 194.660156,117.117188 L 194.660156,118.335938 L 194.660156,126.933594 L 194.660156,136.3125 L 194.660156,145.484375 L 194.660156,147.109375 L 194.660156,149.546875 L 195.066406,150.765625 L 195.066406,153.203125 L 195.066406,155.640625 L 195.472656,157.265625 L 195.472656,158.484375 L 195.472656,160.515625 L 195.472656,162.140625 L 195.472656,164.171875 L 195.878906,166.203125 L 195.878906,168.234375 L 195.878906,168.640625 L 195.878906,169.453125 L 195.878906,170.671875 L 195.878906,171.484375 L 195.878906,172.703125 L 195.878906,173.921875 L 195.878906,175.140625 L 195.878906,177.171875 L 195.878906,179.203125 L 195.277344,182.621094 L 194.867188,184.246094 L 194.867188,185.871094 L 194.867188,187.496094 L 194.457031,188.714844 L 194.457031,190.339844 L 194.457031,191.152344 L 194.046875,192.371094 L 194.046875,193.183594 L 194.046875,193.996094 L 194.046875,194.808594 L 193.636719,195.621094 L 193.636719,196.027344 L 193.636719,196.839844 L 193.636719,197.246094 L 193.636719,197.652344 L 193.226562,198.464844 L 193.226562,199.277344 L 193.226562,199.683594 L 193.226562,200.496094 L 193.226562,201.308594 L 192.816406,202.121094 L 192.816406,203.746094 L 192.816406,204.558594 L 192.816406,205.371094 L 192.40625,206.183594 L 192.40625,206.589844 L 192.40625,206.996094 L 192.40625,207.402344 " transform="matrix(0.952978746,0,0,0.952978746,16.522805064,36.717072253)" fill="none" stroke="#c75f5f" stroke-width="26.4"/>
		<path d="M218.742188,141.21875L 220.84375,160.398438 L 223.085938,173.785156 L 225.1875,190.960938 L 226.132812,198.339844 L 227.078125,204.738281 L 227.675781,209.136719 L 227.675781,211.980469 L 228.082031,214.011719 L 228.082031,215.230469 L 228.082031,215.636719 L 228.082031,216.042969 " transform="matrix(0.757350624,-0.052964419,0.052964419,0.757350624,41.886601254,95.068758431)" fill="none" stroke="#f9d0d0" stroke-width="12.800000000000004" stroke-linecap="round" stroke-linejoin="bevel"/>
		<path d="M226.433594,231.566406L 225.203125,232.378906 L 225.203125,232.785156 L 224.792969,233.191406 L 224.792969,233.597656 L 222.742188,234.816406 L 221.105469,235.628906 L 220.285156,236.441406 L 219.875,236.847656 L 219.054688,237.253906 L 218.234375,237.660156 L 218.234375,238.066406 L 217.824219,238.066406 L 217.824219,238.472656 L 217.414062,238.472656 L 217.414062,238.878906 " transform="matrix(0.686012203,-0.325226775,0.325226775,0.686012203,-1.884751703,173.745961173)" fill="none" stroke="#feeded" stroke-width="12.800000000000004" stroke-linecap="round" stroke-linejoin="bevel"/>
		<path d="" transform="" fill="#ff8723" stroke="#ffffff" stroke-width="2"/>
		<path d="" transform="" fill="#ff8723" stroke="#ffffff" stroke-width="2"/>
		<path d="M139.597656,84.886719L 140.410156,90.167969 L 140.816406,92.605469 L 140.816406,93.417969 L 141.222656,93.824219 L 141.222656,94.636719 L 141.222656,95.449219 L 141.222656,96.261719 L 141.222656,96.667969 L 141.222656,97.074219 L 141.222656,97.480469 L 141.222656,97.886719 L 141.628906,99.105469 L 141.628906,99.511719 L 141.628906,100.324219 L 141.628906,100.730469 L 141.628906,101.136719 L 141.628906,101.542969 L 141.628906,101.949219 L 141.628906,102.761719 L 141.628906,103.574219 L 141.628906,103.980469 L 141.628906,104.386719 L 141.628906,104.792969 L 142.035156,104.792969 L 142.035156,105.199219 L 142.035156,105.605469 L 142.035156,106.011719 L 142.035156,106.417969 L 142.035156,106.824219 L 142.035156,107.230469 " transform="matrix(0.759200367,0,0,0.759200367,48.136201507,92.789123157)" fill="none" stroke="#050200" stroke-width="21.200000000000003" stroke-linecap="round" stroke-linejoin="bevel"/>
		<path d="M257.925781,92.425781L 258.738281,94.863281 L 259.550781,96.488281 L 259.550781,97.300781 L 259.550781,97.707031 L 259.550781,98.113281 L 259.550781,98.519531 L 259.550781,99.738281 L 259.550781,101.363281 L 259.550781,102.988281 L 259.550781,103.394531 L 259.550781,103.800781 L 259.550781,104.207031 L 259.550781,104.613281 L 259.550781,106.238281 L 259.957031,107.863281 L 259.957031,109.082031 L 259.957031,109.488281 L 259.957031,109.894531 L 259.957031,110.300781 L 259.957031,110.707031 L 259.957031,111.113281 L 259.957031,111.925781 L 259.957031,112.332031 " transform="matrix(0.759200367,0,0,0.759200367,49.796952311,87.534033114)" fill="none" stroke="#0c0500" stroke-width="21.200000000000003" stroke-linecap="round"/>
		<path d="" transform="" fill="none" stroke="#fff7f0" stroke-width="9.300000000000024"/>
		<path d="M142.832031,82.691406L 144.050781,84.722656 L 144.457031,85.535156 L 144.863281,85.941406 L 144.863281,86.347656 L 145.269531,87.160156 " transform="matrix(0.759200367,0,0,0.759200367,48.136201507,92.510354272)" fill="none" stroke="#fff7f0" stroke-width="9.300000000000024" stroke-linecap="round" stroke-linejoin="round"/>
		<path d="M262.144531,85.871094L 262.550781,86.277344 L 262.957031,87.496094 L 263.769531,89.121094 L 264.175781,89.527344 L 264.175781,89.933594 L 264.175781,90.339844 L 264.582031,90.746094 L 264.582031,91.152344 L 264.988281,91.152344 " transform="matrix(0.759200367,0,0,0.759200367,48.136201507,92.510354272)" fill="none" stroke="#fff7f0" stroke-width="9.300000000000024" stroke-linecap="round" stroke-linejoin="round"/>
		<path d="" transform="" fill="none" stroke="#fff7f0" stroke-width="9.300000000000024"/>
		<path d="M157.203125,244.34375L 162.078125,247.1875 L 167.359375,249.625 L 171.183594,251.441406 L 177.375,253.640625 L 180.792969,255.050781 L 184.855469,256.269531 L 190.878906,257.679688 L 193.316406,258.492188 L 197.140625,259.496094 L 203.738281,261.097656 L 205.769531,261.503906 L 211.554688,262.699219 L 216.359375,262.699219 L 219.609375,262.699219 L 220.421875,262.699219 L 221.234375,262.699219 L 222.859375,262.699219 L 223.671875,262.699219 L 224.484375,262.699219 L 225.296875,262.289062 L 229.359375,261.878906 L 230.578125,261.878906 L 231.796875,261.46875 L 234.234375,261.058594 L 238.058594,260.457031 L 240.089844,260.046875 L 240.902344,260.046875 L 242.933594,259.636719 L 243.339844,259.636719 L 243.746094,259.226562 L 244.558594,259.226562 L 244.964844,258.816406 L 245.371094,258.40625 " transform="matrix(0.759200367,0,0,0.759200367,48.136201507,92.510354272)" fill="none" stroke="#853c3c" stroke-width="14.500000000000023" stroke-linecap="round"/>
		<path d="M237.855469,258.511719L 241.917969,256.871094 L 254.105469,249.488281 L 254.917969,249.078125 L 255.324219,248.667969 L 256.542969,247.847656 L 256.542969,247.4375 L 256.949219,247.4375 " transform="matrix(0.759200367,0,0,0.759200367,48.290414082,93.987236237)" fill="none" stroke="#853c3c" stroke-width="14.500000000000023" stroke-linecap="round"/>
		<path d="" transform="" fill="none" stroke="#7c3416" stroke-width="14.500000000000023"/>
		<path d="M109.332031,140.117188L 108.101562,140.117188 L 106.460938,139.707031 L 105.230469,139.707031 L 103.589844,139.296875 L 101.128906,138.886719 L 99.082031,138.886719 L 96.625,138.066406 L 93.355469,137.65625 L 90.902344,137.65625 L 88.449219,137.246094 L 85.175781,136.835938 L 83.128906,136.835938 L 79.863281,136.015625 L 78.226562,135.605469 L 74.953125,135.605469 L 72.90625,134.785156 L 72.496094,134.785156 " transform="matrix(1,0,0,1,1.487779025,6.85748938)" fill="none" stroke="#7c3416" stroke-width="14.500000000000023" stroke-linecap="round" stroke-linejoin="bevel"/>
		<path d="M106.714844,121.039062L 102.625,118.988281 L 100.578125,118.167969 L 99.757812,117.347656 L 99.347656,116.9375 L 98.9375,116.9375 L 98.9375,116.527344 L 98.527344,116.527344 " transform="matrix(1,0,0,1,-15.078125,7.822265625)" fill="none" stroke="#7c3416" stroke-width="14.500000000000023" stroke-linecap="round" stroke-linejoin="round"/>
		<path d="M114.457031,102.414062L 110.210938,100.582031 L 108.164062,99.351562 L 104.484375,97.300781 L 102.847656,96.480469 L 102.4375,96.480469 L 102.027344,95.660156 L 97.773438,93.417969 L 97.363281,93.007812 L 96.542969,92.597656 L 93.679688,91.367188 L 91.226562,89.726562 L 88.773438,88.90625 L 88.363281,88.90625 L 87.953125,88.496094 L 87.542969,88.085938 " transform="" fill="none" stroke="#7c3416" stroke-width="14.500000000000023" stroke-linecap="round" stroke-linejoin="round"/>
		<path d="M301.988281,153.25L 301.578125,153.25 L 299.53125,153.25 L 297.480469,151.613281 L 295.839844,149.972656 L 295.839844,149.152344 L 295.839844,147.921875 L 297.464844,146.28125 L 299.902344,144.640625 L 301.527344,143.410156 L 304.777344,141.363281 L 307.214844,140.132812 L 309.652344,139.3125 L 311.683594,138.492188 L 314.527344,136.035156 L 314.933594,135.625 L 314.523438,135.625 L 310.683594,133.792969 L 300.882812,129.777344 L 292.265625,127.214844 L 291.855469,127.214844 L 291.445312,126.804688 L 291.035156,126.394531 " transform="" fill="none" stroke="#7c3416" stroke-width="14.500000000000023" stroke-linecap="round"/>
		<path d="M312.59375,108.664062L 317.804688,105.636719 L 321.222656,104.214844 " transform="matrix(3.126344608,0,0,1,-675.881779044,8.064453125)" fill="none" stroke="#7c3416" stroke-width="14.500000000000023" stroke-linecap="round"/>
		<path d="M286.542969,104.878906L 289.386719,101.199219 L 291.824219,99.5625 L 291.824219,99.152344 " transform="" fill="none" stroke="#7c3416" stroke-width="14.500000000000023"/>
		<path d="M284.863281,114.503906L 286.488281,112.046875 L 287.300781,110.816406 L 288.113281,109.996094 L 288.925781,109.175781 L 289.332031,108.765625 L 290.550781,107.535156 L 291.363281,106.714844 L 292.175781,105.894531 L 292.988281,105.074219 L 294.207031,104.253906 L 295.019531,103.433594 L 295.425781,103.023438 L 295.832031,102.613281 L 296.644531,102.203125 L 296.644531,101.792969 " transform="" fill="none" stroke="#7c3416" stroke-width="14.500000000000023" stroke-linecap="round"/>
		<path d="M116.714844,126.605469L 115.074219,125.785156 L 111.796875,125.375 L 110.566406,124.964844 L 109.335938,124.144531 L 108.105469,123.734375 L 107.285156,122.914062 L 106.054688,121.683594 L 105.644531,120.863281 L 105.234375,120.042969 L 104.824219,119.222656 L 104.824219,118.8125 L 104.824219,117.992188 L 105.230469,117.171875 L 107.667969,115.535156 L 108.886719,115.125 L 109.699219,114.714844 L 113.523438,114.714844 L 115.554688,114.714844 L 117.992188,114.714844 L 119.210938,114.714844 L 119.617188,114.714844 L 120.835938,114.714844 L 121.648438,114.714844 L 122.460938,114.714844 L 123.679688,114.714844 L 124.085938,114.304688 L 124.492188,113.484375 L 124.898438,112.253906 L 123.667969,110.203125 L 122.03125,108.15625 L 120.390625,105.703125 L 119.570312,104.066406 L 117.527344,101.207031 L 117.527344,100.796875 L 117.117188,100.386719 " transform="" fill="none" stroke="#7c3416" stroke-width="14.500000000000023" stroke-linecap="round"/>
		<path d="M131.59375,92.027344L 130.171875,87.78125 L 129.761719,86.140625 L 130.953125,87.878906 L 128.492188,84.199219 L 127.261719,81.328125 L 126.851562,80.507812 L 126.03125,79.277344 L 125.621094,78.046875 L 124.800781,77.636719 L 124.800781,76.816406 L 124.390625,76.816406 L 124.390625,76.40625 " transform="" fill="none" stroke="#7c3416" stroke-width="14.500000000000023" stroke-linecap="round"/>
		<path d="M165.203125,79.800781L 172.660156,72.730469 L 180.683594,70.769531 L 182.308594,70.769531 L 183.933594,71.988281 L 186.371094,74.019531 L 187.183594,75.644531 L 187.183594,78.082031 L 187.183594,81.5 L 187.78125,86.949219 L 187.78125,89.386719 L 188.1875,90.199219 L 188.59375,91.417969 L 189.8125,91.824219 L 191.84375,93.042969 L 198.847656,95.648438 L 204.058594,96.246094 L 207.308594,95.835938 L 214.519531,94.824219 L 222.710938,93.210938 L 226.941406,91.789062 L 232.152344,88.761719 L 243.1875,81.367188 L 245.21875,80.140625 L 245.625,79.730469 L 246.03125,80.136719 L 246.4375,80.542969 L 247.25,81.355469 " transform="matrix(1.257741426,0,0,1.345430464,-61.22092902,-35.749636932)" fill="none" stroke="#7c3416" stroke-width="22.30000000000002" stroke-linecap="round"/>
		<path d="M115.679688,235.636719L 115.269531,235.636719 L 114.449219,236.042969 L 114.039062,236.449219 L 112.8125,236.855469 L 109.382812,238.265625 L 105.789062,239.460938 L 104.152344,239.867188 L 102.925781,240.679688 L 102.105469,240.679688 L 100.878906,241.492188 L 100.058594,241.898438 L 100.058594,242.304688 L 99.648438,242.304688 L 99.648438,242.710938 L 99.238281,243.117188 L 99.238281,243.523438 L 98.828125,244.335938 L 98.828125,244.742188 L 98.417969,245.960938 L 98.417969,246.773438 L 98.007812,247.585938 L 98.007812,247.992188 L 98.007812,248.804688 L 98.007812,249.210938 L 98.007812,249.617188 L 98.007812,250.023438 L 98.414062,250.429688 L 98.414062,250.835938 L 98.414062,251.242188 L 98.820312,251.648438 L 99.226562,252.460938 L 99.632812,252.867188 L 99.632812,253.679688 L 100.039062,254.492188 L 101.257812,255.304688 L 101.664062,256.117188 L 102.070312,256.117188 L 102.882812,256.523438 L 103.289062,256.929688 L 104.101562,257.335938 L 104.914062,258.148438 L 105.726562,258.554688 L 106.132812,258.960938 L 106.945312,259.367188 L 107.351562,259.773438 L 107.757812,259.773438 L 107.757812,260.179688 L 108.164062,260.179688 L 108.570312,260.585938 L 109.382812,261.398438 L 109.789062,261.804688 L 110.601562,262.210938 L 111.007812,262.617188 L 111.414062,262.617188 L 111.414062,263.023438 L 111.820312,263.023438 L 112.226562,263.429688 L 112.632812,263.835938 L 113.039062,264.242188 L 113.445312,264.242188 L 113.445312,264.648438 L 114.257812,265.460938 L 115.070312,266.273438 L 115.882812,267.085938 L 116.289062,267.898438 L 116.695312,268.304688 L 116.695312,268.710938 L 117.101562,269.117188 L 117.507812,269.523438 L 117.507812,270.335938 L 117.914062,271.554688 L 118.320312,272.367188 L 118.726562,273.179688 L 119.132812,274.398438 L 119.132812,275.617188 L 119.132812,276.023438 L 119.132812,276.835938 L 119.539062,277.648438 L 119.539062,278.054688 L 119.539062,278.867188 L 119.539062,279.679688 L 119.539062,280.085938 L 119.539062,281.304688 L 119.128906,282.523438 L 118.71875,283.335938 L 118.308594,283.742188 L 117.078125,285.773438 L 115.851562,287.398438 L 114.621094,288.617188 L 114.210938,289.429688 L 113.800781,289.835938 L 112.570312,291.054688 L 112.160156,291.460938 L 111.75,291.867188 L 110.929688,292.679688 L 110.519531,293.085938 L 110.109375,293.492188 L 109.699219,293.898438 L 109.289062,294.304688 L 108.878906,294.710938 L 108.878906,295.117188 L 108.46875,295.523438 L 108.46875,295.929688 L 108.46875,296.335938 L 108.058594,296.742188 L 108.058594,297.148438 L 108.058594,297.960938 L 108.058594,298.367188 L 108.058594,299.179688 L 108.058594,299.585938 L 108.058594,300.398438 L 108.464844,301.210938 L 108.464844,301.617188 L 108.871094,302.023438 L 108.871094,302.429688 L 109.277344,302.429688 L 109.683594,302.835938 L 110.089844,302.835938 L 110.496094,303.242188 L 110.902344,303.242188 L 111.308594,303.648438 L 112.121094,303.648438 L 112.933594,304.054688 L 113.339844,304.054688 L 114.152344,304.054688 L 114.558594,304.054688 L 114.964844,304.054688 L 116.183594,304.054688 L 116.996094,303.644531 L 117.808594,303.644531 L 118.621094,303.234375 L 119.433594,302.824219 L 119.839844,302.824219 L 121.058594,302.003906 L 122.683594,301.59375 L 124.308594,300.773438 L 125.121094,300.773438 L 125.933594,300.363281 L 127.152344,299.953125 L 129.183594,299.132812 L 129.589844,298.722656 L 130.402344,298.722656 L 131.621094,298.3125 L 132.433594,297.902344 L 133.652344,297.492188 L 134.058594,297.492188 L 135.277344,297.492188 L 136.496094,296.671875 L 137.308594,296.671875 L 137.714844,296.671875 L 138.121094,296.671875 L 138.527344,296.671875 L 138.933594,296.671875 L 139.339844,297.078125 L 139.746094,297.078125 L 140.152344,297.078125 L 140.558594,297.484375 L 140.964844,297.890625 L 141.371094,297.890625 L 141.777344,298.296875 L 141.777344,298.703125 L 143.402344,299.515625 L 143.808594,299.921875 L 145.027344,300.734375 L 145.027344,301.140625 L 146.652344,302.765625 L 148.277344,303.984375 L 148.683594,304.796875 L 149.089844,305.203125 L 149.089844,306.015625 L 149.496094,307.640625 L 149.902344,308.859375 L 149.902344,309.671875 L 149.902344,310.890625 L 149.902344,312.109375 L 149.492188,312.921875 L 149.082031,314.546875 L 148.671875,315.359375 L 148.261719,316.171875 L 147.441406,317.390625 L 146.621094,318.203125 L 146.210938,319.015625 L 145.390625,319.828125 L 144.570312,320.640625 L 143.75,321.859375 L 142.523438,323.484375 L 141.296875,324.296875 L 140.066406,325.515625 L 139.246094,326.328125 L 138.835938,326.734375 L 137.605469,327.953125 L 136.785156,328.359375 L 135.148438,329.578125 L 133.105469,331.203125 L 132.285156,331.609375 L 131.464844,332.015625 L 131.464844,332.421875 L 131.054688,332.828125 L 130.234375,333.234375 L 129.824219,333.640625 L 129.414062,334.046875 L 128.59375,334.453125 L 128.183594,335.265625 L 127.363281,336.078125 L 126.953125,336.484375 L 126.132812,337.703125 L 125.722656,338.515625 L 124.902344,339.328125 L 124.492188,339.734375 L 124.082031,340.140625 L 123.671875,340.953125 L 122.851562,341.765625 L 122.441406,342.171875 L 121.621094,343.390625 L 121.210938,344.203125 L 120.800781,344.609375 L 119.980469,345.828125 L 119.570312,347.046875 L 118.75,348.265625 L 118.75,349.078125 L 118.339844,349.890625 L 118.339844,350.296875 L 118.339844,350.703125 L 118.339844,351.515625 L 117.929688,351.921875 L 117.929688,352.328125 L 117.929688,352.734375 L 117.929688,353.140625 L 117.929688,353.953125 L 117.929688,354.359375 L 117.929688,354.765625 L 118.335938,355.171875 L 118.335938,355.984375 L 119.148438,357.203125 L 119.960938,358.015625 L 120.367188,358.015625 L 120.773438,358.421875 L 122.398438,358.828125 L 123.210938,358.828125 L 124.429688,359.234375 L 125.242188,359.234375 L 126.460938,359.234375 L 127.273438,359.234375 L 128.085938,359.234375 L 128.898438,359.234375 L 130.117188,358.824219 L 130.929688,358.414062 L 131.742188,358.003906 L 132.148438,357.59375 L 132.960938,356.773438 L 133.773438,355.953125 L 134.585938,355.136719 L 135.804688,353.90625 L 136.617188,353.085938 L 137.429688,351.855469 L 138.242188,350.628906 L 139.054688,349.402344 L 139.867188,348.175781 L 140.679688,346.949219 L 141.492188,345.316406 L 142.304688,343.683594 L 143.714844,341.070312 L 144.527344,339.4375 L 145.339844,338.210938 L 146.152344,336.980469 L 146.558594,335.753906 L 147.371094,334.527344 L 148.972656,332.320312 L 150.382812,329.707031 L 150.789062,327.09375 L 151.601562,325.867188 L 153.011719,323.253906 L 154.613281,318.84375 L 155.832031,317.210938 L 157.242188,313.78125 L 158.460938,312.148438 L 159.464844,309.941406 L 160.875,307.328125 L 162.667969,303.734375 L 163.671875,301.527344 L 164.890625,300.300781 L 166.109375,298.664062 L 166.921875,297.84375 L 168.546875,296.617188 L 168.546875,296.207031 L 168.953125,296.613281 L 169.359375,297.019531 L 169.765625,297.832031 L 170.171875,298.644531 L 170.578125,299.863281 L 170.984375,301.082031 L 171.390625,302.300781 L 171.796875,303.519531 L 172.203125,304.332031 L 172.203125,305.550781 L 172.203125,306.363281 L 172.609375,307.582031 L 172.609375,308.394531 L 172.609375,309.613281 L 172.609375,311.644531 L 172.609375,313.269531 L 172.007812,315.875 L 172.007812,317.5 L 171.597656,319.9375 L 171.1875,320.34375 L 170.777344,321.5625 L 170.777344,322.78125 L 169.957031,324.8125 L 169.546875,326.03125 L 168.726562,327.65625 L 167.90625,329.28125 L 166.679688,330.5 L 165.449219,332.125 L 165.039062,332.9375 L 164.21875,333.75 L 163.808594,334.5625 L 162.988281,335.78125 L 162.167969,337 L 160.941406,338.21875 L 160.53125,339.4375 L 159.710938,340.65625 L 158.890625,342.28125 L 158.070312,343.5 L 158.070312,345.292969 L 157.25,346.917969 L 156.839844,348.949219 L 156.839844,349.761719 L 156.429688,351.386719 L 156.429688,353.011719 L 156.019531,354.230469 L 156.019531,357.480469 L 155.609375,358.699219 L 155.609375,360.324219 L 155.609375,361.136719 L 155.609375,361.949219 L 155.609375,362.761719 L 155.609375,364.386719 L 155.609375,366.417969 L 155.609375,367.230469 L 155.609375,368.449219 L 155.609375,369.667969 L 156.015625,370.074219 L 156.421875,370.480469 L 156.828125,371.292969 L 157.640625,372.511719 L 158.046875,373.324219 L 159.265625,374.949219 L 159.265625,375.355469 L 159.671875,375.355469 L 159.671875,375.761719 L 160.484375,376.574219 L 160.890625,376.980469 L 161.296875,376.980469 L 162.109375,377.386719 L 162.515625,377.792969 L 162.921875,378.199219 L 163.328125,378.199219 L 164.140625,378.605469 L 164.140625,379.011719 L 164.546875,379.011719 L 164.953125,379.417969 L 165.765625,379.417969 L 166.171875,379.824219 L 166.578125,379.824219 L 167.796875,380.230469 L 168.203125,380.230469 L 169.015625,380.636719 L 169.421875,381.042969 L 170.234375,381.042969 L 176.734375,381.042969 L 177.140625,381.042969 L 177.953125,380.222656 L 179.171875,379.8125 L 179.578125,379.402344 L 180.390625,378.582031 L 181.203125,378.171875 L 182.015625,377.351562 L 182.421875,376.53125 L 183.640625,374.894531 L 184.453125,373.664062 L 184.859375,372.84375 L 185.265625,371.617188 L 185.671875,370.390625 L 186.078125,369.570312 L 186.890625,367.933594 L 187.296875,366.707031 L 187.703125,365.480469 L 188.515625,363.847656 L 188.921875,362.621094 L 189.328125,360.984375 L 189.328125,360.167969 L 189.734375,358.941406 L 190.140625,357.308594 L 190.546875,356.082031 L 191.144531,353.46875 L 191.550781,351.425781 L 192.148438,348.8125 L 193.34375,344.402344 L 193.941406,341.789062 L 194.347656,340.5625 L 194.753906,338.929688 L 195.160156,337.703125 L 195.566406,336.476562 L 196.164062,334.269531 L 197.765625,329.859375 L 198.171875,328.632812 L 198.578125,327.40625 L 198.984375,326.179688 L 200.394531,322.75 L 201.207031,321.117188 L 202.019531,319.890625 L 202.425781,319.070312 L 202.832031,318.660156 L 203.238281,318.25 L 203.644531,318.25 L 204.050781,317.839844 L 204.457031,317.839844 L 205.269531,317.839844 L 205.675781,318.246094 L 206.082031,318.246094 L 206.488281,318.652344 L 207.300781,319.464844 L 207.707031,319.464844 L 207.707031,319.871094 L 208.519531,320.683594 L 209.523438,323.289062 L 211.125,325.894531 L 211.9375,327.519531 L 213.347656,330.9375 L 214.757812,334.355469 L 215.570312,335.574219 L 215.976562,336.792969 L 215.976562,339.398438 L 216.382812,341.023438 L 216.382812,344.035156 L 216.382812,345.660156 L 216.382812,347.859375 L 216.382812,349.484375 L 215.972656,354.695312 L 215.5625,357.300781 L 214.613281,361.90625 L 214.203125,369.898438 L 213.601562,373.484375 L 213,377.070312 L 213,380.488281 L 212.589844,382.113281 L 212.179688,384.144531 L 212.179688,384.957031 L 212.179688,386.582031 L 212.179688,387.800781 L 212.179688,388.207031 L 212.179688,388.613281 L 212.585938,388.613281 L 212.585938,389.019531 L 212.992188,389.425781 L 213.398438,389.832031 L 213.804688,389.832031 L 214.617188,389.832031 L 215.835938,390.238281 L 217.054688,390.644531 L 217.867188,390.234375 L 219.492188,389.003906 L 220.304688,388.59375 L 220.710938,388.183594 L 221.523438,387.363281 L 221.929688,386.542969 L 222.742188,385.722656 L 223.554688,384.496094 L 223.960938,383.269531 L 224.773438,381.632812 L 225.179688,379.996094 L 225.179688,379.175781 L 225.585938,377.949219 L 225.585938,376.722656 L 225.585938,374.273438 L 224.984375,370.679688 L 224.574219,369.453125 L 224.164062,367.820312 L 223.753906,365.371094 L 223.34375,362.757812 L 222.742188,357.164062 L 221.792969,351.160156 L 221.792969,349.363281 L 220.84375,337.972656 L 220.84375,326.582031 L 220.84375,322.988281 L 220.84375,317.597656 L 220.84375,312.984375 L 221.25,309.554688 L 221.25,308.734375 L 221.25,308.324219 L 221.65625,307.503906 L 222.46875,306.683594 L 223.6875,305.050781 L 224.90625,303.417969 L 225.3125,303.007812 L 226.125,303.820312 L 226.53125,304.632812 L 227.34375,305.445312 L 228.347656,308.863281 L 229.160156,310.488281 L 230.164062,313.09375 L 230.976562,315.53125 L 231.980469,319.929688 L 232.578125,324.328125 L 233.773438,327.914062 L 234.71875,332.113281 L 235.914062,339.492188 L 236.511719,342.097656 L 236.917969,344.703125 L 237.324219,346.328125 L 238.328125,349.746094 L 238.734375,351.371094 L 239.140625,352.996094 L 239.546875,354.214844 L 239.953125,355.839844 L 240.765625,357.871094 L 241.578125,359.496094 L 241.984375,361.121094 L 242.796875,362.746094 L 243.609375,363.964844 L 244.015625,364.777344 L 244.828125,365.996094 L 246.046875,367.214844 L 247.265625,368.027344 L 247.671875,368.433594 L 248.890625,368.839844 L 252.308594,370.847656 L 255.964844,374.097656 L 258.402344,375.316406 L 260.027344,376.128906 L 262.464844,376.941406 L 263.683594,377.347656 L 264.496094,377.347656 L 265.714844,377.347656 L 266.527344,376.9375 L 267.339844,375.707031 L 268.152344,374.480469 L 268.152344,372.84375 L 268.152344,371.203125 L 267.332031,368.753906 L 266.105469,367.527344 L 263.652344,365.074219 L 262.425781,363.847656 L 259.8125,361.832031 L 257.796875,359.21875 L 254.964844,355.789062 L 252.949219,353.175781 L 251.722656,351.542969 L 249.894531,348.113281 L 247.683594,343.703125 L 245.667969,341.089844 L 243.867188,337.496094 L 242.636719,335.046875 L 242.035156,332.433594 L 241.023438,329.820312 L 240.613281,327.613281 L 240.011719,324.019531 L 239.601562,322.382812 L 239.191406,320.339844 L 239.191406,316.910156 L 239.597656,316.089844 L 240.410156,315.269531 L 241.222656,314.449219 L 242.441406,313.222656 L 245.046875,311.804688 L 247.078125,310.984375 L 247.484375,310.574219 L 248.296875,310.574219 L 249.109375,310.980469 L 249.515625,311.386719 L 250.734375,312.199219 L 251.953125,313.011719 L 252.359375,313.417969 L 253.171875,314.230469 L 254.390625,315.855469 L 261.847656,322.75 L 263.042969,324.949219 L 265.265625,328.367188 L 268.515625,332.023438 L 273.5,341.402344 L 275.722656,344.820312 L 276.535156,346.039062 L 277.347656,346.851562 L 278.972656,348.882812 L 280.191406,349.695312 L 280.597656,350.101562 L 281.410156,350.507812 L 283.441406,350.914062 L 284.253906,350.914062 L 285.066406,350.914062 L 285.878906,350.503906 L 286.285156,349.683594 L 287.097656,348.867188 L 288.722656,347.230469 L 289.941406,346 L 290.347656,345.179688 L 290.753906,343.953125 L 291.160156,342.316406 L 291.160156,340.273438 L 291.160156,339.046875 L 291.566406,336.433594 L 291.566406,332.023438 L 291.566406,330.796875 L 291.15625,329.164062 L 290.339844,326.140625 L 288.703125,324.097656 L 287.882812,322.464844 L 287.472656,321.238281 L 286.242188,319.601562 L 283.789062,317.554688 L 282.96875,316.328125 L 281.332031,314.691406 L 280.105469,313.464844 L 279.285156,313.054688 L 278.054688,311.824219 L 276.828125,310.597656 L 276.007812,309.367188 L 275.1875,307.730469 L 274.367188,306.910156 L 273.546875,304.460938 L 273.136719,302.828125 L 272.726562,301.195312 L 272.316406,299.152344 L 272.316406,297.925781 L 272.316406,295.882812 L 273.320312,292.453125 L 274.132812,290.410156 L 274.539062,289.589844 L 274.945312,289.589844 L 275.351562,289.179688 L 276.164062,289.179688 L 276.570312,289.179688 L 278.195312,289.992188 L 279.007812,290.398438 L 280.226562,290.398438 L 281.039062,290.398438 L 283.238281,290.804688 L 285.4375,291.808594 L 286.65625,291.808594 L 287.875,292.214844 L 289.5,292.214844 L 290.3125,292.621094 L 291.53125,292.621094 L 292.34375,292.621094 L 293.96875,292.621094 L 294.78125,293.027344 L 295.1875,293.027344 L 296,293.027344 L 297.21875,292.617188 L 298.03125,292.207031 L 298.84375,291.796875 L 300.0625,290.976562 L 300.875,290.15625 L 302.09375,289.335938 L 302.90625,288.925781 L 303.3125,288.515625 L 303.71875,287.285156 L 304.125,286.464844 L 304.53125,284.421875 L 304.53125,283.195312 L 304.121094,281.152344 L 303.710938,279.109375 L 302.890625,277.878906 L 301.660156,276.648438 L 300.433594,275.421875 L 298.800781,273.789062 L 296.757812,272.5625 L 295.125,271.335938 L 293.488281,270.105469 L 292.257812,269.285156 L 290.621094,268.054688 L 289.800781,267.234375 L 288.980469,266.414062 L 288.160156,265.59375 L 287.75,264.773438 L 286.519531,263.953125 L 286.109375,263.132812 L 285.289062,261.902344 L 284.878906,260.265625 L 284.058594,258.628906 L 283.648438,256.992188 L 283.238281,255.765625 L 283.238281,254.132812 L 282.828125,252.496094 L 282.828125,252.085938 L 282.828125,251.265625 L 283.640625,249.628906 L 284.859375,248.398438 L 285.265625,247.171875 L 286.484375,245.941406 L 287.703125,245.121094 L 290.953125,242.664062 L 291.765625,241.84375 L 292.578125,241.433594 L 295.015625,239.792969 L 295.828125,239.382812 L 297.453125,239.382812 L 298.671875,239.382812 L 299.078125,238.972656 L 299.484375,238.972656 L 299.890625,238.972656 L 300.703125,238.5625 L 301.109375,238.5625 L 301.921875,238.5625 L 302.734375,238.152344 L 303.140625,237.332031 L 303.546875,236.515625 L 303.546875,235.695312 L 303.546875,234.464844 L 303.546875,234.054688 L 302.320312,232.824219 L 301.089844,231.59375 L 298.632812,229.953125 L 297,228.726562 L 293.40625,226.328125 L 291.765625,225.507812 L 291.765625,225.097656 L 291.355469,225.503906 L 291.355469,225.910156 L 290.945312,225.910156 " transform="" fill="none" stroke="#ff7723" stroke-width="22.30000000000002" stroke-linecap="round" stroke-linejoin="bevel"/>
		<path d="M189.746094,311.417969L 186.996094,318.796875 L 180.707031,340.117188 L 180.296875,340.929688 L 180.296875,341.742188 L 179.886719,344.179688 L 179.886719,347.597656 L 179.476562,348.816406 L 178.65625,350.441406 L 178.65625,351.253906 L 178.246094,352.472656 L 178.246094,353.285156 L 177.835938,353.691406 L 177.835938,354.097656 L 177.425781,354.910156 L 177.425781,355.316406 L 176.605469,356.941406 L 176.195312,358.160156 L 175.785156,358.566406 L 174.554688,361.410156 L 174.144531,362.222656 L 173.734375,363.035156 L 173.324219,363.441406 L 172.914062,363.847656 L 172.503906,364.253906 L 172.09375,364.253906 L 170.453125,365.066406 L 170.042969,365.066406 L 169.222656,365.472656 L 167.996094,365.878906 L 166.765625,366.285156 L 166.355469,366.285156 L 164.71875,366.285156 L 162.265625,365.464844 L 161.445312,364.644531 L 159.808594,363.007812 L 154.578125,355.984375 L 151.128906,351.339844 L 150.308594,350.113281 L 149.488281,348.480469 L 148.257812,346.027344 L 147.4375,343.984375 L 147.027344,342.351562 L 146.617188,341.125 L 146.207031,339.074219 L 145.796875,337.847656 L 145.386719,335.804688 L 144.976562,334.578125 L 144.15625,330.902344 L 144.15625,329.105469 L 143.335938,327.878906 L 143.335938,327.058594 L 142.515625,324.601562 L 141.695312,322.96875 L 139.234375,318.882812 L 138.414062,317.65625 L 137.59375,316.835938 L 136.773438,316.015625 L 136.363281,316.015625 L 135.953125,316.015625 L 135.542969,316.015625 L 135.132812,315.605469 L 134.3125,315.605469 L 133.492188,316.011719 L 131.855469,317.230469 L 129.808594,318.449219 L 128.988281,318.855469 L 128.578125,319.261719 L 127.351562,319.667969 L 125.300781,321.292969 L 124.074219,322.105469 L 121.617188,323.730469 L 120.390625,324.136719 L 119.980469,324.542969 L 119.160156,324.949219 L 117.109375,325.761719 L 116.289062,326.167969 L 115.46875,326.574219 L 113.417969,327.386719 L 112.191406,327.792969 L 111.375,328.199219 L 110.558594,328.605469 L 108.101562,329.417969 L 106.464844,330.230469 L 105.238281,330.636719 L 101.96875,331.449219 L 101.148438,331.855469 L 99.921875,331.855469 L 99.101562,332.261719 L 95.421875,333.480469 L 94.195312,333.886719 L 92.96875,333.886719 L 90.925781,334.699219 L 89.699219,335.105469 L 89.289062,335.105469 L 88.878906,335.105469 L 88.46875,334.695312 L 88.058594,333.058594 L 87.046875,330.035156 L 86.636719,328.804688 L 86.636719,328.394531 L 86.636719,327.574219 L 86.636719,325.53125 L 86.636719,324.304688 L 87.449219,323.074219 L 87.855469,321.847656 L 89.074219,319.800781 L 89.886719,318.980469 L 90.699219,317.75 L 91.917969,316.929688 L 93.136719,315.703125 L 95.574219,313.65625 L 96.792969,312.835938 L 97.605469,312.015625 L 98.011719,312.015625 L 98.417969,312.015625 L 99.230469,311.605469 L 100.855469,311.195312 L 101.261719,310.785156 L 102.480469,310.375 L 104.105469,309.964844 L 105.730469,309.144531 L 106.949219,308.734375 L 107.761719,307.914062 L 108.980469,307.503906 L 108.980469,307.09375 L 109.386719,306.683594 L 109.792969,305.863281 L 109.792969,305.453125 L 110.199219,305.042969 L 110.199219,304.222656 L 110.199219,302.582031 L 110.199219,302.171875 L 109.789062,300.53125 L 109.378906,300.121094 L 108.148438,298.890625 L 106.921875,298.070312 L 105.695312,297.25 L 103.648438,295.613281 L 102.828125,294.792969 L 100.78125,293.5625 L 99.550781,292.742188 L 98.324219,291.921875 L 96.6875,290.691406 L 93.417969,288.238281 L 92.597656,287.828125 L 92.1875,287.007812 L 91.367188,286.597656 L 91.367188,286.1875 L 91.367188,285.367188 L 90.957031,284.140625 L 90.546875,283.320312 L 90.546875,280.046875 L 90.546875,279.226562 L 92.171875,276.769531 L 93.390625,275.949219 L 94.203125,275.539062 L 95.421875,274.71875 L 97.859375,273.078125 L 98.671875,272.667969 L 99.078125,272.667969 L 99.484375,272.667969 L 99.484375,273.074219 L 99.890625,273.886719 " transform="" fill="none" stroke="#ff7723" stroke-width="22.30000000000002" stroke-linecap="round" stroke-linejoin="bevel"/>
		<path d="M187.21875,342.34375L 196.324219,368.035156 L 206.886719,374.535156 L 207.292969,374.535156 L 207.292969,374.125 L 207.292969,373.714844 L 207.699219,373.304688 L 208.105469,372.484375 L 208.511719,372.074219 L 208.511719,371.664062 L 208.917969,368.800781 L 208.917969,367.980469 L 209.324219,366.753906 L 209.324219,365.933594 L 209.324219,365.523438 L 209.324219,365.113281 L 209.324219,364.292969 L 209.324219,361.835938 L 209.324219,360.609375 L 209.324219,359.789062 L 209.324219,358.5625 L 208.503906,355.292969 L 208.09375,354.476562 L 207.683594,353.65625 L 207.273438,353.246094 L 206.863281,352.015625 L 206.042969,351.195312 L 205.632812,350.785156 L 205.222656,350.375 L 203.992188,349.144531 L 203.582031,348.734375 L 203.171875,348.324219 L 202.761719,347.914062 L 202.761719,347.503906 L 202.761719,347.09375 L 204.960938,347.09375 " transform="" fill="none" stroke="#ff7723" stroke-width="22.30000000000002"/>
		<path d="M251.945312,334.101562L 267.121094,353.316406 L 270.777344,345.933594 L 270.777344,345.523438 L 270.777344,345.113281 L 269.957031,343.0625 L 269.546875,341.835938 L 269.136719,341.015625 L 268.726562,341.015625 L 268.316406,340.195312 L 267.90625,339.785156 L 267.496094,338.964844 L 267.085938,338.144531 " transform="" fill="none" stroke="#ff7723" stroke-width="22.30000000000002"/>
		<path d="M115.992188,281.761719L 117.210938,280.125 L 118.429688,277.257812 L 118.429688,276.4375 L 118.429688,275.617188 L 118.429688,274.386719 L 118.429688,272.75 L 118.429688,271.929688 L 118.429688,270.699219 L 118.019531,269.46875 L 118.019531,268.242188 L 117.609375,267.421875 L 117.199219,266.601562 L 115.96875,264.554688 L 115.558594,264.144531 L 115.558594,263.734375 L 115.148438,263.734375 L 113.097656,261.277344 L 111.460938,259.640625 L 111.050781,259.230469 L 109.410156,257.589844 L 107.769531,255.542969 L 106.949219,254.722656 L 106.539062,254.3125 L 106.128906,253.492188 L 105.308594,252.261719 L 104.898438,251.441406 L 104.078125,249.800781 L 104.078125,248.980469 L 103.667969,248.160156 L 103.667969,247.75 L 103.667969,246.523438 L 103.257812,243.660156 L 104.070312,242.019531 L 104.476562,241.199219 L 105.695312,240.378906 L 106.101562,240.378906 L 107.726562,239.558594 L 112.195312,239.148438 L 113.007812,238.738281 L 114.226562,238.328125 L 115.851562,237.917969 L 116.257812,237.917969 L 117.882812,237.097656 L 119.101562,236.277344 L 119.507812,236.277344 L 120.320312,235.867188 L 120.320312,235.457031 L 120.726562,235.457031 L 120.726562,235.046875 L 121.539062,233.816406 L 121.539062,232.996094 L 121.539062,232.175781 L 121.539062,231.355469 L 121.539062,230.535156 L 121.539062,230.125 L 121.539062,229.304688 L 120.308594,228.484375 L 118.257812,226.023438 L 117.847656,226.023438 L 117.847656,225.613281 L 116.621094,224.792969 L 115.800781,223.972656 L 115.390625,223.5625 L 114.570312,223.152344 L 114.570312,222.742188 L 114.160156,222.742188 L 113.75,222.332031 L 113.339844,222.332031 L 112.929688,221.921875 " transform="" fill="none" stroke="#ff7723" stroke-width="22.30000000000002" stroke-linecap="round" stroke-linejoin="bevel"/>
	</g>
</g></g></svg>