<svg xmlns="http://www.w3.org/2000/svg" viewBox="0 0 2048 1536" width="2048" height="1536" preserveAspectRatio="xMidYMid meet" style="width: 100%; height: 100%; transform: translate3d(0px, 0px, 0px); content-visibility: visible;"><defs><clipPath id="__lottie_element_12"><rect width="2048" height="1536" x="0" y="0"></rect></clipPath><clipPath id="__lottie_element_14"><path d="M0,0 L2048,0 L2048,1536 L0,1536z"></path></clipPath></defs>
<g opacity="1" transform="matrix(1,0,0,1,1563.2030029296875,1375.60400390625)"><path fill="rgb(156,103,28)" fill-opacity="1" d=" M200.35899353027344,89.56099700927734 C192.49099731445312,78.36199951171875 180.63800048828125,70.06700134277344 172.68099975585938,58.676998138427734 C159.4499969482422,40.3489990234375 147.18899536132812,24.643999099731445 124.18900299072266,18.680999755859375 C124.29499816894531,18.72100067138672 124.4000015258789,18.760000228881836 124.50499725341797,18.799999237060547 C116.95099639892578,16.650999069213867 103.95099639892578,8.788999557495117 103.95099639892578,8.788999557495117 C103.95099639892578,8.788999557495117 106.99700164794922,-22.937000274658203 106.99700164794922,-22.937000274658203 C106.99700164794922,-22.937000274658203 108.9260025024414,-33.56700134277344 108.9260025024414,-33.56700134277344 C108.9260025024414,-33.56700134277344 107.91300201416016,-38.047000885009766 107.91300201416016,-38.047000885009766 C107.91300201416016,-38.047000885009766 107.88200378417969,-56.53499984741211 106.06199645996094,-55.79999923706055 C95.6709976196289,-76.70700073242188 98.1969985961914,-97.46099853515625 86.36699676513672,-117.63600158691406 C80.64099884033203,-125.40399932861328 53.82500076293945,-112.4010009765625 45.34700012207031,-113.80799865722656 C37.551998138427734,-115.10199737548828 0.9629999995231628,-121.57599639892578 3.0510001182556152,-114.072998046875 C6.931000232696533,-97.11000061035156 25.92099952697754,-11.85200023651123 25.92099952697754,-11.85200023651123 C25.92099952697754,-11.85200023651123 30.465999603271484,3.2850000858306885 30.465999603271484,3.2850000858306885 C30.465999603271484,3.2850000858306885 30.29800033569336,2.3929998874664307 30.214000701904297,1.9470000267028809 C30.214000701904297,1.9470000267028809 30.211000442504883,1.9470000267028809 30.211000442504883,1.9470000267028809 C30.295000076293945,2.3910000324249268 30.3799991607666,2.8369998931884766 30.46299934387207,3.2829999923706055 C30.44700050354004,3.2750000953674316 30.430999755859375,3.2660000324249268 30.413999557495117,3.257999897003174 C30.415000915527344,3.25600004196167 30.416000366210938,3.253999948501587 30.417999267578125,3.252000093460083 C18.410999298095703,-1.2139999866485596 5.296999931335449,-4.011000156402588 -7.460000038146973,-3.9149999618530273 C-34.12200164794922,-6.538000106811523 -61.292999267578125,-11.904999732971191 -88.0510025024414,-8.253000259399414 C-99.83000183105469,-6.645999908447266 -110.61199951171875,-1.5959999561309814 -121.19200134277344,3.5429999828338623 C-142.77999877929688,11.059000015258789 -164.0229949951172,19.513999938964844 -185.2760009765625,27.92300033569336 C-201.18800354003906,31.461999893188477 -195.28599548339844,56.7130012512207 -179.4810028076172,52.84600067138672 C-170.0760040283203,55.24100112915039 -160.37399291992188,50.26900100708008 -151.1739959716797,48.47200012207031 C-130.56199645996094,54.05099868774414 -110.0999984741211,60.332000732421875 -89.95600128173828,67.40299987792969 C-76.62300109863281,80.79900360107422 -54.12200164794922,76.8290023803711 -36.731998443603516,78.27300262451172 C-20.804000854492188,78.25800323486328 -5.297999858856201,80.33000183105469 10.626999855041504,78.2239990234375 C16.08099937438965,83.12999725341797 23.027000427246094,80.32099914550781 28.792999267578125,77.87000274658203 C37.93199920654297,78.22899627685547 47.09199905395508,77.51599884033203 56.082000732421875,78.61499786376953 C56.06100082397461,78.62100219726562 56,78.62899780273438 55.97999954223633,78.63400268554688 C70.43199920654297,79.96199798583984 85.00199890136719,79.20099639892578 99.46800231933594,79.98200225830078 C99.49500274658203,79.99400329589844 99.52400207519531,79.9990005493164 99.55000305175781,80.01100158691406 C99.3219985961914,80.25900268554688 99.09100341796875,80.50299835205078 98.86299896240234,80.7509994506836 C98.76899719238281,80.74400329589844 98.6709976196289,80.73999786376953 98.5739974975586,80.73200225830078 C99.73500061035156,80.81400299072266 100.9739990234375,80.9010009765625 102.13200378417969,80.9739990234375 C102.63700103759766,80.95500183105469 103.25499725341797,81.19599914550781 103.70899963378906,80.9280014038086 C106.83599853515625,81.47100067138672 113.06199645996094,81.25499725341797 113.05799865722656,81.25499725341797 C113.13200378417969,81.26100158691406 112.03299713134766,81.6500015258789 111.4280014038086,81.88099670410156 C126.86000061035156,80.94000244140625 138.3249969482422,94.5459976196289 153.1820068359375,94.63700103759766 C165.84300231933594,102.00700378417969 199.3939971923828,125.40399932861328 199.3820037841797,95.91899871826172 C200.71200561523438,94.14099884033203 201.18800354003906,91.68599700927734 200.35899353027344,89.56099700927734z"></path></g>
<g opacity="1" transform="matrix(1,0,0,1,1576.18994140625,1301.10400390625)"><path fill="rgb(0,0,0)" fill-opacity="1" d=" M114.09200286865234,-83.1780014038086 C107.39700317382812,-88.36000061035156 98.7750015258789,-89.06999969482422 90.61000061035156,-89.7229995727539 C53.45600128173828,-92.16999816894531 16.31999969482422,-86.61199951171875 -20.882999420166016,-87.1510009765625 C-39.01900100708008,-86.39700317382812 -57.14799880981445,-86.11399841308594 -75.2979965209961,-86.11100006103516 C-93.06199645996094,-86.49400329589844 -118.37300109863281,-86.95899963378906 -123.95099639892578,-65.71600341796875 C-124.10900115966797,-65.62699890136719 -124.2699966430664,-65.54299926757812 -124.427001953125,-65.4530029296875 C-124.33200073242188,-65.27200317382812 -124.23999786376953,-65.08999633789062 -124.15299987792969,-64.90599822998047 C-123.62799835205078,-63.867000579833984 -123.45500183105469,-62.71799850463867 -123.47799682617188,-61.564998626708984 C-123.48999786376953,-60.983001708984375 -123.36499786376953,-60.40800094604492 -123.11399841308594,-59.88399887084961 C-122.41600036621094,-58.42900085449219 -121.79299926757812,-56.88399887084961 -121.58899688720703,-55.29100036621094 C-121.51200103759766,-54.691001892089844 -121.25800323486328,-54.125999450683594 -120.9010009765625,-53.63800048828125 C-119.83200073242188,-52.17900085449219 -118.66899871826172,-50.86399841308594 -116.98899841308594,-50.0359992980957 C-116.99199676513672,-50.03300094604492 -116.99600219726562,-50.03099822998047 -116.9990005493164,-50.02899932861328 C-112.28500366210938,-47.02399826049805 -107.26399993896484,-44.50699996948242 -102.0719985961914,-42.44499969482422 C-102.06800079345703,-42.44900131225586 -102.06300354003906,-42.45199966430664 -102.05899810791016,-42.45600128173828 C-97.12300109863281,-40.505001068115234 -92.1259994506836,-38.680999755859375 -87.30699920654297,-36.4370002746582 C-87.0250015258789,-36.59400177001953 -86.74400329589844,-36.75400161743164 -86.46299743652344,-36.91400146484375 C-67.08399963378906,-35.5260009765625 -47.69200134277344,-35.577999114990234 -28.292999267578125,-35.96699905395508 C-28.292999267578125,-35.96699905395508 -28.29599952697754,-35.9640007019043 -28.29599952697754,-35.9640007019043 C-25.388999938964844,-36.13999938964844 -22.409000396728516,-35.775001525878906 -19.548999786376953,-35.88399887084961 C-19.576000213623047,-35.90399932861328 -19.60300064086914,-35.926998138427734 -19.6299991607666,-35.946998596191406 C-14.385000228881836,-36.95600128173828 -8.954999923706055,-37.70100021362305 -3.5420000553131104,-37.40399932861328 C5.9710001945495605,-37.09199905395508 15.557999610900879,-37.066001892089844 25.040000915527344,-37.9010009765625 C25.040000915527344,-37.9010009765625 25.040000915527344,-37.90800094604492 25.040000915527344,-37.90800094604492 C25.114999771118164,-37.91600036621094 25.36199951171875,-37.939998626708984 25.44099998474121,-37.946998596191406 C25.44099998474121,-37.946998596191406 25.44300079345703,-37.946998596191406 25.44300079345703,-37.946998596191406 C25.44300079345703,-37.946998596191406 25.44300079345703,-37.95100021362305 25.44300079345703,-37.95100021362305 C25.54800033569336,-37.95800018310547 25.764999389648438,-37.97600173950195 25.8700008392334,-37.986000061035156 C25.8700008392334,-37.986000061035156 25.834999084472656,-37.979000091552734 25.834999084472656,-37.979000091552734 C25.834999084472656,-37.979000091552734 25.836000442504883,-37.979000091552734 25.836000442504883,-37.979000091552734 C25.836000442504883,-37.979000091552734 25.82200050354004,-37.974998474121094 25.82200050354004,-37.974998474121094 C25.966999053955078,-37.98699951171875 26.132999420166016,-38.005001068115234 26.274999618530273,-38.025001525878906 C27.035999298095703,-38.082000732421875 27.804000854492188,-38.16299819946289 28.56399917602539,-38.23099899291992 C28.322999954223633,-38.20600128173828 28.082000732421875,-38.185001373291016 27.843000411987305,-38.1619987487793 C28.19499969482422,-38.19499969482422 28.54800033569336,-38.23099899291992 28.900999069213867,-38.26100158691406 C28.469999313354492,-38.21900177001953 28.038000106811523,-38.180999755859375 27.608999252319336,-38.138999938964844 C41.250999450683594,-39.29199981689453 54.99399948120117,-39.882999420166016 68.67400360107422,-40.20500183105469 C68.60700225830078,-40.30799865722656 68.3280029296875,-40.78499984741211 68.26300048828125,-40.900001525878906 C68.26599884033203,-40.900001525878906 68.26899719238281,-40.9010009765625 68.27300262451172,-40.9010009765625 C68.27200317382812,-40.902000427246094 68.27100372314453,-40.90299987792969 68.27100372314453,-40.90399932861328 C68.76000213623047,-40.948001861572266 69.23400115966797,-40.9900016784668 69.71399688720703,-41.02899932861328 C70.00499725341797,-41.02899932861328 70.30999755859375,-41.090999603271484 70.60900115966797,-41.111000061035156 C88.09300231933594,-3.385999917984009 90.92400360107422,38.1879997253418 89.89399719238281,79.15699768066406 C89.88600158691406,79.47200012207031 89.91200256347656,79.78700256347656 89.98200225830078,80.09500122070312 C90.74099731445312,83.43900299072266 92.25499725341797,86.57599639892578 92.48200225830078,90.11100006103516 C92.62200164794922,90.27100372314453 92.7770004272461,90.43099975585938 92.93499755859375,90.58799743652344 C92.93499755859375,90.58799743652344 92.93499755859375,90.60299682617188 92.93499755859375,90.60299682617188 C92.94599914550781,90.61399841308594 92.95600128173828,90.625 92.96800231933594,90.63600158691406 C94.55400085449219,92.16999816894531 97.13500213623047,91.85900115966797 98.49299621582031,90.11900329589844 C100.04199981689453,88.13300323486328 102.2030029296875,86.69200134277344 104.5790023803711,85.96600341796875 C106.26000213623047,85.4520034790039 107.37699890136719,83.86399841308594 107.27799987792969,82.10900115966797 C104.9530029296875,41.47800064086914 100.12200164794922,-0.14800000190734863 83.18000030517578,-37.494998931884766 C82.11699676513672,-39.840999603271484 83.63200378417969,-42.54199981689453 86.19000244140625,-42.85100173950195 C95.96700286865234,-44.02899932861328 106.09500122070312,-45.54999923706055 114.09300231933594,-51.46200180053711 C124.28099822998047,-59.051998138427734 124.427001953125,-75.6449966430664 114.09200286865234,-83.1780014038086z M29.264999389648438,-38.29499816894531 C29.27899932861328,-38.29600143432617 29.29199981689453,-38.29800033569336 29.305999755859375,-38.29899978637695 C29.305999755859375,-38.29899978637695 29.30699920654297,-38.29899978637695 29.30699920654297,-38.29899978637695 C29.292999267578125,-38.29800033569336 29.280000686645508,-38.29600143432617 29.264999389648438,-38.29499816894531z"></path></g>
<g opacity="1" transform="matrix(1,0,0,1,1583.074951171875,1353.5179443359375)"><path fill="rgb(0,0,0)" fill-opacity="1" d=" M4.215000152587891,24.125 C2.940999984741211,27.93199920654297 0.16899999976158142,31.417999267578125 -3.1110000610351562,33.70000076293945 C-3.1589999198913574,46.59400177001953 -2.8340001106262207,59.41999816894531 -3.2209999561309814,72.20800018310547 C-3.2639999389648438,72.15699768066406 -3.302999973297119,72.10600280761719 -3.3459999561309814,72.05599975585938 C-3.3459999561309814,72.05599975585938 -3.3459999561309814,72.06300354003906 -3.3459999561309814,72.06300354003906 C-2.4519999027252197,73.28199768066406 -2.0510001182556152,74.7979965209961 -2.2709999084472656,76.29900360107422 C3.4119999408721924,84.62300109863281 17.913999557495117,80.33300018310547 17.902000427246094,70.11900329589844 C17.354999542236328,65.14299774169922 16.85300064086914,59.79899978637695 15.979000091552734,54.71900177001953 C15.97700023651123,54.71900177001953 15.972000122070312,54.71699905395508 15.970999717712402,54.715999603271484 C7.4019999504089355,13.312000274658203 2.986999988555908,-29.052000045776367 -5.798999786376953,-70.28800201416016 C-1.4539999961853027,-73.60700225830078 -5.329999923706055,-79.9219970703125 -8.744000434875488,-82.01100158691406 C-17.913999557495117,-84.62200164794922 -17.277000427246094,-73.4260025024414 -15.670000076293945,-67.60099792480469 C-15.67300033569336,-67.60600280761719 -15.682999610900879,-67.62999725341797 -15.6850004196167,-67.63600158691406 C-13.911999702453613,-58.30099868774414 -12.758000373840332,-48.87099838256836 -11.432000160217285,-39.46900177001953 C-11.753000259399414,-40.33599853515625 -12.0649995803833,-41.20800018310547 -12.395999908447266,-42.071998596191406 C-9.984999656677246,-25.21500015258789 -8.053999900817871,-8.277000427246094 -6.165999889373779,8.64900016784668 C0.9240000247955322,10.027000427246094 6.293000221252441,16.878999710083008 4.215000152587891,24.125z"></path></g>
<g opacity="1" transform="matrix(1,0,0,1,1483.9749755859375,1384.68994140625)"><path fill="rgb(2,2,1)" fill-opacity="1" d=" M-102.5199966430664,24.202999114990234 C-93.6520004272461,33.54199981689453 -82.33699798583984,22.83099937438965 -73.29100036621094,19.23900032043457 C-65.39600372314453,14.390999794006348 -53.874000549316406,11.545000076293945 -50.143001556396484,2.3320000171661377 C-47.189998626708984,1.0490000247955322 -44.207000732421875,-0.11999999731779099 -41.18600082397461,-1.2170000076293945 C-32.23899841308594,1.75600004196167 -22.270999908447266,-1.6160000562667847 -12.98799991607666,-1.4229999780654907 C7.170000076293945,-0.8669999837875366 27.341999053955078,-0.5879999995231628 47.465999603271484,0.8130000233650208 C47.39699935913086,0.8080000281333923 47.327999114990234,0.8040000200271606 47.25699996948242,0.7990000247955322 C47.41600036621094,0.8090000152587891 47.573001861572266,0.8199999928474426 47.72999954223633,0.8309999704360962 C47.68899917602539,0.828000009059906 47.64699935913086,0.824999988079071 47.60499954223633,0.8220000267028809 C59.117000579833984,0.9739999771118164 70.74800109863281,3.250999927520752 82.14099884033203,2.2990000247955322 C86.61100006103516,4.015999794006348 91.64700317382812,5.388999938964844 95.98899841308594,2.5280001163482666 C111.8290023803711,-9.647000312805176 101.2760009765625,-23.398000717163086 84.33000183105469,-24.600000381469727 C60.268001556396484,-30.006999969482422 35.57699966430664,-33.03300094604492 10.913000106811523,-33.297000885009766 C-17.368999481201172,-33.54199981689453 -45.790000915527344,-27.742000579833984 -70.85700225830078,-14.409000396728516 C-78.19000244140625,-10.130000114440918 -88.35099792480469,-7.822999954223633 -92.1449966430664,0.4560000002384186 C-101.60299682617188,4.158999919891357 -111.83000183105469,14.784000396728516 -102.5199966430664,24.202999114990234z"></path></g>
</svg>